<?xml version="1.0" encoding="utf-8"?><svg viewBox="0 0 167 72" xmlns="http://www.w3.org/2000/svg" xmlns:xlink="http://www.w3.org/1999/xlink"><style>:root>svg{display:none}:root>svg:target{display:block}</style><svg fill="none" viewBox="0 0 72 72" id="Union" xmlns="http://www.w3.org/2000/svg"><path fill-rule="evenodd" clip-rule="evenodd" d="M40.943 14.694a8.07 8.07 0 01-6.314.198 8.068 8.068 0 01-4.55-4.382l-3.927-9.152A36.166 36.166 0 0136 0c9.616 0 18.656 3.745 25.456 10.544a36.136 36.136 0 016.292 8.448l-1.854.505a8.166 8.166 0 01-8.317-2.563c-3.567-4.176-9.546-5.492-14.538-3.202l-2.096.962zm.927 18.427a11.836 11.836 0 017.967 3.224l17.84 16.793a36.144 36.144 0 01-6.221 8.318C54.656 68.256 45.616 72 36 72a36.67 36.67 0 01-3.633-.18l1.843-6.543a16.083 16.083 0 00-2-13.13l-.45-.693a11.87 11.87 0 01-1.814-8.048 11.87 11.87 0 013.87-7.284 11.817 11.817 0 018.054-3.001zm-13.697 38.03l1.977-7.018c.927-3.29.39-6.82-1.475-9.686l-.45-.693a16.09 16.09 0 01-2.46-10.909 16.09 16.09 0 015.247-9.874 16.056 16.056 0 0110.917-4.068 16.043 16.043 0 0110.799 4.37l16.82 15.834A35.976 35.976 0 0072 36c0-4.564-.845-8.998-2.459-13.125l-2.54.692a12.246 12.246 0 01-3.215.429c-3.565 0-7.042-1.545-9.415-4.322a8.164 8.164 0 00-9.573-2.108l-2.096.962a12.254 12.254 0 01-9.59.3 12.254 12.254 0 01-6.91-6.655l-4.044-9.426a35.743 35.743 0 00-8.729 5.205c7.012 10.65 7.051 24.603-.072 35.326l-7.87 11.848a36.276 36.276 0 005.057 6.33c4.915 4.915 11.001 8.233 17.63 9.695zM10.265 10.83c5.728 9.172 5.64 20.989-.421 30.112l-6.626 9.974A35.893 35.893 0 010 36c0-9.482 3.643-18.403 10.265-25.17z" fill="#17AADF"/></svg><svg fill="none" viewBox="0 0 167 35" id="logo" xmlns="http://www.w3.org/2000/svg"><path d="M44.113 17.5a17.452 17.452 0 01-4.42 11.58 17.628 17.628 0 01-11.018 5.77 17.67 17.67 0 01-12.1-2.928 17.506 17.506 0 01-7.122-10.16V35H0V0h9.453v13.237a17.504 17.504 0 015.737-9.125A17.659 17.659 0 0125.208.047v9.466a8.145 8.145 0 00-4.893 2.744 8.066 8.066 0 00-1.94 5.243c0 1.921.688 3.78 1.94 5.244a8.145 8.145 0 004.893 2.743c.105.021.212.037.32.047.189 0 .383.042.578.053h.414a8.162 8.162 0 005.753-2.368A8.075 8.075 0 0034.66 17.5v-.261h9.453v.261z" fill="#fff"/><path d="M60.393 17.5V35H50.94V17.5a8.075 8.075 0 00-2.291-5.764 8.162 8.162 0 00-5.717-2.464 8.164 8.164 0 00-5.795 2.28 8.078 8.078 0 00-2.477 5.687v.261a8.075 8.075 0 01-2.384 5.726 8.162 8.162 0 01-5.756 2.371c-.44 0-.879-.036-1.312-.11V17.5c0-4.641 1.853-9.092 5.152-12.374A17.64 17.64 0 0142.8 0a17.64 17.64 0 0112.44 5.126A17.453 17.453 0 0160.393 17.5z" fill="#17AADF"/><path fill-rule="evenodd" clip-rule="evenodd" d="M164.416 23.91v-7.314H167v7.314h-2.584zm-4.317.214c-2.45 0-3.676-1.045-3.676-3.134V16.59h2.574v2.32c.236-.146.495-.25.766-.309a4.496 4.496 0 011.114-.12 3.114 3.114 0 012.132.68 2.553 2.553 0 01.777 2.02 2.586 2.586 0 01-.998 2.194 4.438 4.438 0 01-2.689.748zm.804-3.657a1.054 1.054 0 00-.788-.282 1.432 1.432 0 00-.651.136c-.18.078-.336.203-.452.36v.57c-.017.301.08.598.273.83a1.061 1.061 0 00.814.303 1.013 1.013 0 00.804-.308c.19-.232.288-.526.273-.825a1.081 1.081 0 00-.273-.8v.016zm-7.562 3.135a3.768 3.768 0 01-1.891.464 2.584 2.584 0 01-1.985-.767v3.264h-2.589v-6.268c-.013-.7.169-1.391.525-1.996a3.473 3.473 0 011.471-1.337 4.94 4.94 0 012.216-.47 4.55 4.55 0 012.1.46 3.25 3.25 0 011.382 1.31c.331.617.497 1.308.483 2.007a4.23 4.23 0 01-.452 1.99c-.283.547-.719 1-1.255 1.306l-.005.037zm-1.255-4.577a1.424 1.424 0 00-1.124-.48 1.417 1.417 0 00-1.119.48 2.125 2.125 0 000 2.529 1.424 1.424 0 001.124.475 1.455 1.455 0 001.124-.48 2.085 2.085 0 000-2.524h-.005zm-9.978 3.083c.311.007.62-.043.913-.147.288-.115.552-.28.783-.486l1.349 1.4c-.7.794-1.75 1.191-3.15 1.191a5.067 5.067 0 01-2.274-.485 3.666 3.666 0 01-2.137-3.3 3.64 3.64 0 01.564-1.966 3.667 3.667 0 011.536-1.358 4.44 4.44 0 012.1-.486 4.395 4.395 0 011.97.439 3.46 3.46 0 011.423 1.28c.362.605.544 1.3.525 2.005l-5.251.998c.155.294.396.535.691.692.295.156.63.221.963.186l-.005.037zm1.113-2.77a1.395 1.395 0 00-.525-.736 1.535 1.535 0 00-.904-.318 1.494 1.494 0 00-1.087.407 1.76 1.76 0 00-.478 1.18l2.994-.532zm-.042-3.578a1.055 1.055 0 01-.767-.287.994.994 0 01-.304-.763 1.034 1.034 0 01.304-.768 1.144 1.144 0 011.539 0 1.034 1.034 0 01.304.768.994.994 0 01-.304.763 1.056 1.056 0 01-.767.25l-.005.037zm-2.883 0a1.055 1.055 0 01-.767-.287 1.012 1.012 0 01-.31-.763 1.077 1.077 0 012.153 0 .996.996 0 01-.31.763c-.21.18-.484.27-.761.25l-.005.037zm-6.685 5.585h-2.626v2.565h-2.574v-7.314h2.574v2.732h2.626v-2.737h2.583v7.313h-2.583v-2.56zm-9.674-1.202a1.782 1.782 0 00-.294-1.139.996.996 0 00-.819-.36 1.195 1.195 0 00-.94.402c-.263.354-.39.79-.357 1.228v3.657h-2.584v-3.788c0-1.003-.373-1.499-1.113-1.499a1.22 1.22 0 00-.956.402c-.262.354-.386.79-.352 1.228v3.657h-2.563v-7.314h2.463v.768c.261-.292.587-.521.951-.669a3.378 3.378 0 011.229-.219c.479-.008.954.088 1.391.282.406.19.75.488.993.862.291-.37.67-.662 1.103-.851a3.594 3.594 0 011.454-.293 2.923 2.923 0 012.169.81 3.317 3.317 0 01.809 2.44v4.178h-2.584v-3.782zm.331-9.925a3.78 3.78 0 01-1.891.465 2.58 2.58 0 01-1.985-.758v3.265h-2.589V6.922a3.822 3.822 0 01.525-2.001 3.473 3.473 0 011.471-1.337 4.944 4.944 0 012.216-.47 4.554 4.554 0 012.101.46c.59.29 1.078.752 1.397 1.326.332.616.499 1.307.483 2.006a4.258 4.258 0 01-.483 1.975 3.185 3.185 0 01-1.245 1.337zm-1.26-4.576a1.546 1.546 0 00-2.238 0 1.862 1.862 0 00-.42 1.264c-.024.46.124.912.415 1.27a1.577 1.577 0 001.729.344c.192-.08.367-.197.514-.345.299-.35.453-.8.43-1.259a1.81 1.81 0 00-.43-1.274zm-9.978 3.082c.312.008.624-.042.919-.146a2.66 2.66 0 00.782-.486l1.35 1.405c-.7.79-1.751 1.186-3.151 1.186a5.066 5.066 0 01-2.274-.486 3.667 3.667 0 01-1.528-1.336 3.642 3.642 0 01-.034-3.89 3.665 3.665 0 011.504-1.361 4.681 4.681 0 014.054-.047 3.445 3.445 0 011.418 1.28 3.66 3.66 0 01.525 2.006l-5.251.997a1.667 1.667 0 001.691.878h-.005zm1.118-2.764a1.33 1.33 0 00-.525-.736 1.514 1.514 0 00-.909-.277 1.479 1.479 0 00-1.087.413c-.302.32-.473.741-.477 1.18l2.998-.58zm-3.618 10.97a3.21 3.21 0 011.381 1.312 3.99 3.99 0 01.483 2.006 4.227 4.227 0 01-.446 1.99 3.19 3.19 0 01-1.266 1.327 3.78 3.78 0 01-1.89.465 2.593 2.593 0 01-1.986-.768v3.265h-2.589v-6.269c-.012-.7.17-1.39.526-1.995a3.436 3.436 0 011.47-1.338 4.928 4.928 0 012.216-.47 4.53 4.53 0 012.106.476h-.005zm-2.227 1.568a1.404 1.404 0 00-1.118.48 2.119 2.119 0 000 2.529 1.539 1.539 0 001.121.477 1.56 1.56 0 001.121-.477 2.085 2.085 0 000-2.523 1.405 1.405 0 00-1.119-.476l-.005-.01zm-.646-10.14a1.755 1.755 0 01-.525 1.26 3.15 3.15 0 01-1.397.83 6.39 6.39 0 01-1.964.277 8.379 8.379 0 01-3.35-.633l.667-1.734a6.73 6.73 0 002.599.486 2.26 2.26 0 00.972-.172.55.55 0 00.362-.523.476.476 0 00-.215-.433 1.311 1.311 0 00-.667-.136h-1.576V6.096h1.36c.604 0 .909-.188.909-.553 0-.366-.404-.586-1.208-.586a6.734 6.734 0 00-2.342.486l-.615-1.687a8.322 8.322 0 013.151-.658 5.469 5.469 0 012.584.522 1.682 1.682 0 011.024 1.536c0 .33-.105.652-.299.92-.21.304-.493.55-.825.715.381.107.723.32.988.611.232.265.363.604.367.956zm-5.183 8.228v7.313H99.99v-.731a2.669 2.669 0 01-2.174.862 3.692 3.692 0 01-1.833-.465c-.55-.316-1-.777-1.302-1.332a4.363 4.363 0 010-3.991 3.336 3.336 0 011.302-1.311 3.692 3.692 0 011.833-.46 2.77 2.77 0 012.053.768v-.648l2.605-.005zm-2.978 2.377a1.576 1.576 0 00-1.72-.341c-.191.079-.365.195-.512.34-.307.35-.463.806-.435 1.27-.028.468.128.929.435 1.285a1.575 1.575 0 001.72.341c.192-.079.366-.195.512-.34.307-.357.464-.818.436-1.286a1.766 1.766 0 00-.457-1.264l.021-.005zm-2.82-9.19c-.275.3-.617.53-.998.675a3.167 3.167 0 01-1.213.23 3.112 3.112 0 01-2.279-.836 3.386 3.386 0 01-.85-2.529V3.244h2.588v3.657c-.034.423.075.846.31 1.201a1.124 1.124 0 00.914.382 1.293 1.293 0 00.998-.429c.29-.37.428-.834.388-1.3V3.243h2.584v7.313h-2.463l.021-.783zm-1.528-7.229a2.857 2.857 0 01-1.927-.548 2.165 2.165 0 01-.63-1.683h1.67c-.016.262.063.521.22.732a.815.815 0 00.651.235.887.887 0 00.678-.235c.163-.208.242-.469.22-.732h1.702a2.106 2.106 0 01-.63 1.683 2.942 2.942 0 01-1.954.548zM87.04 9.857a2.669 2.669 0 01-2.175.852 3.691 3.691 0 01-1.832-.465 3.378 3.378 0 01-1.303-1.363 4.005 4.005 0 01-.483-2.001c-.017-.694.15-1.38.483-1.99.3-.553.752-1.01 1.303-1.317a3.692 3.692 0 011.832-.439 2.749 2.749 0 012.054.758v-.648h2.584v7.313H87.04v-.7zm-.526-4.21a1.576 1.576 0 00-1.72-.341c-.191.079-.365.195-.511.341a1.786 1.786 0 00-.436 1.27c-.027.47.13.931.436 1.29a1.576 1.576 0 001.72.34c.191-.078.365-.194.511-.34.307-.359.463-.82.436-1.29a1.786 1.786 0 00-.425-1.296l-.01.026zm-8.612 4.942l-2.164-3.62h-1.223v3.62H71.84V1.113h2.684v3.656h1.292l2.274-3.656h2.83l-2.982 4.56 3.009 4.89-3.046.026zm-3.755 9.7c-.035.424.074.847.31 1.202a1.124 1.124 0 00.914.376 1.288 1.288 0 00.997-.423c.29-.371.429-.838.389-1.306v-3.547h2.589v7.313h-2.463v-.783a2.626 2.626 0 01-.982.674 3.25 3.25 0 01-1.213.23 3.136 3.136 0 01-2.28-.836 3.387 3.387 0 01-.845-2.513v-4.085h2.584v3.699zm18.501 3.657H90.08v-5.318h-2.478v5.282h-2.569v-7.314h7.615v7.35zM135.097 33.924v-.83h-.82l-.577.83h-.525l.64-.893a.89.89 0 01-.457-.293.824.824 0 01-.162-.522.802.802 0 01.309-.685c.25-.17.549-.252.851-.235h1.156v2.612l-.415.016zm0-2.205h-.709c-.457 0-.688.173-.688.523a.457.457 0 00.168.387c.156.099.341.143.525.125h.73l-.026-1.035zm-3.067 1.808a.923.923 0 01-.378.313 1.213 1.213 0 01-.525.11 1.163 1.163 0 01-.835-.287 1.139 1.139 0 01-.3-.852v-1.504h.473v1.452a.798.798 0 00.189.575.674.674 0 00.525.193.799.799 0 00.599-.225.907.907 0 00.215-.642v-1.353h.478v2.612h-.452l.011-.392zm-3.366-.7h-1.502v1.097h-.478v-2.612h.478v1.113h1.502v-1.118h.477v2.612h-.477v-1.092zm-3.356.679a1.044 1.044 0 01-.405.334c-.165.074-.344.111-.525.11a1.383 1.383 0 01-.688-.167 1.193 1.193 0 01-.472-.47 1.488 1.488 0 010-1.395 1.27 1.27 0 01.472-.47 1.44 1.44 0 01.688-.167c.181-.002.36.036.525.11a.945.945 0 01.394.313v-.397h.478v2.612h-.457l-.01-.413zm-.126-1.374a.822.822 0 00-.321-.324.995.995 0 00-.908 0 .858.858 0 00-.32.324 1.055 1.055 0 000 .967.901.901 0 00.32.323.952.952 0 00.908 0 .868.868 0 00.321-.323 1.122 1.122 0 000-.967zm-3.293-.413h-1.491v2.205h-.478v-2.612h2.442v2.612h-.473v-2.205zm-3.329.293l-.988 1.614h-.21l-.971-1.62v1.918h-.442v-2.612h.494l1.05 1.766 1.051-1.766h.446v2.612h-.43v-1.912zm-3.965 1.766a1.528 1.528 0 01-1.408 0 1.264 1.264 0 01-.667-1.165 1.264 1.264 0 01.667-1.16 1.524 1.524 0 011.408 0 1.296 1.296 0 01.667 1.16c.005.242-.057.48-.179.69-.111.2-.277.364-.478.475h-.01zm.068-1.646a.782.782 0 00-.315-.324.941.941 0 00-.457-.11.919.919 0 00-.452.11.826.826 0 00-.32.324 1.068 1.068 0 000 .967.858.858 0 00.772.438.886.886 0 00.457-.115.818.818 0 00.315-.323 1.068 1.068 0 000-.967zm-2.873 1.792l-.887-1.108h-.525v1.108h-.478v-2.612h.478v1.107h.556l.856-1.107h.525l-.997 1.259 1.05 1.358-.578-.005zm-4.611-.83h-.819l-.578.83h-.525l.641-.893a.89.89 0 01-.457-.293.831.831 0 01-.163-.522.815.815 0 01.31-.685c.25-.17.549-.252.851-.235h1.155v2.612h-.43l.015-.815zm0-1.375h-.709c-.456 0-.688.173-.688.523a.46.46 0 00.168.386.825.825 0 00.499.126h.73v-1.035zm-3.056 1.787a1.048 1.048 0 01-.404.334c-.166.073-.345.11-.526.11a1.373 1.373 0 01-.688-.167 1.2 1.2 0 01-.472-.47 1.488 1.488 0 010-1.395c.113-.196.276-.358.472-.47.212-.113.449-.17.688-.167.181-.003.361.034.526.11a.945.945 0 01.399.313v-.397h.478v2.612h-.457l-.016-.413zm-.142-1.374a.776.776 0 00-.315-.324.956.956 0 00-.457-.11.915.915 0 00-.451.11.822.822 0 00-.321.324 1.068 1.068 0 000 .967.865.865 0 00.772.438.901.901 0 00.457-.115.812.812 0 00.315-.323 1.068 1.068 0 000-.967zm-2.862 1.792l-.887-1.108h-.526v1.108h-.451v-2.612h.478v1.107h.556l.856-1.107h.525l-.997 1.259 1.05 1.358-.604-.005zm-4.075-.523a.939.939 0 00.467.115.907.907 0 00.41-.094.787.787 0 00.304-.282l.363.23c-.1.178-.25.324-.43.418-.2.096-.42.145-.642.141a1.477 1.477 0 01-.719-.172 1.231 1.231 0 01-.494-.476 1.311 1.311 0 01-.178-.69 1.29 1.29 0 01.672-1.159c.221-.117.469-.177.72-.172a1.36 1.36 0 01.64.146c.183.09.333.235.43.413l-.362.23a.812.812 0 00-.714-.371.997.997 0 00-.467.11.827.827 0 00-.32.323.973.973 0 00-.116.48.952.952 0 00.115.487.795.795 0 00.342.355l-.021-.032zm-3.114-.03c.172.101.371.152.572.145a.992.992 0 00.761-.313l.258.303c-.118.142-.27.251-.441.319a1.73 1.73 0 01-1.334-.063 1.215 1.215 0 01-.525-.475 1.332 1.332 0 01-.179-.695c-.003-.24.057-.475.173-.684.108-.201.273-.366.473-.476.206-.116.44-.176.677-.172.228-.001.452.054.652.162.194.104.356.26.467.449.12.204.181.437.179.674l-2.101.402c.07.19.208.349.389.444l-.021-.02zm1.286-1.046a.817.817 0 00-.814-.643.849.849 0 00-.446.116.764.764 0 00-.305.313 1.04 1.04 0 00-.11.48v.048l1.675-.314zm-3.298.523a2.015 2.015 0 01-.85.193 1.149 1.149 0 01-.762-.225.846.846 0 01-.268-.679v-.83h.478v.82a.488.488 0 00.173.407.733.733 0 00.478.141 1.92 1.92 0 00.751-.172v-1.196h.51v2.612h-.478l-.032-1.071zm-3.009.658a.923.923 0 01-.378.313 1.212 1.212 0 01-.525.11 1.164 1.164 0 01-.835-.287 1.131 1.131 0 01-.3-.852v-1.483h.478v1.452a.797.797 0 00.184.575.674.674 0 00.525.193.8.8 0 00.6-.225.88.88 0 00.214-.642v-1.353h.478v2.612H88.9l.01-.413zm-4.248 1.384c-.24 0-.48-.035-.71-.104a1.383 1.383 0 01-.524-.288l.225-.365c.135.112.29.197.457.25.18.061.368.091.557.09a.975.975 0 00.688-.215.897.897 0 00.22-.663v-.162a1.133 1.133 0 01-.415.303 1.51 1.51 0 01-1.218-.063 1.18 1.18 0 01-.483-.45 1.338 1.338 0 010-1.316c.115-.19.283-.345.483-.444.21-.11.445-.166.683-.162.19-.002.377.036.551.11.167.068.314.178.426.319v-.402h.451v2.262a1.336 1.336 0 01-.346 1.013 1.418 1.418 0 01-1.024.308l-.021-.02zm.646-2.977a.911.911 0 00-.652-.235.927.927 0 00-.656.235.793.793 0 00-.252.61.837.837 0 00.115.445.822.822 0 00.326.303 1.055 1.055 0 00.935 0 .838.838 0 00.441-.747.777.777 0 00-.236-.59l-.021-.021zm-3.151 1.593a.94.94 0 01-.384.313 1.197 1.197 0 01-.525.11 1.16 1.16 0 01-.83-.287 1.134 1.134 0 01-.304-.852v-1.483h.478v1.452a.823.823 0 00.183.575.695.695 0 00.526.193.8.8 0 00.598-.225.906.906 0 00.216-.642v-1.353h.477v2.612h-.451l.016-.413zm-3.267.256a1.438 1.438 0 01-1.213.063.987.987 0 01-.394-.309v1.343H76.8v-2.236a1.45 1.45 0 01.168-.7c.114-.2.28-.364.483-.475.22-.114.466-.171.714-.167.245-.005.487.053.704.167.2.11.365.274.473.475a1.56 1.56 0 010 1.39 1.162 1.162 0 01-.447.47l-.005-.021zm.037-1.64a.797.797 0 00-.315-.33.908.908 0 00-.462-.114.854.854 0 00-.636.25.922.922 0 00-.241.664 1.04 1.04 0 00.11.486c.075.15.194.273.341.355a.975.975 0 00.92 0 .848.848 0 00.314-.324 1.009 1.009 0 00-.026-.966l-.005-.021zm-3.608 1.567c-.276.156-.59.236-.909.23a1.855 1.855 0 01-.85-.199 1.714 1.714 0 01-.898-1.332h-.64v1.53h-.49v-3.452h.49v1.483h.645a1.697 1.697 0 01.914-1.327 1.903 1.903 0 011.743.037c.266.148.484.367.63.632a1.883 1.883 0 010 1.808 1.624 1.624 0 01-.63.632l-.005-.042zm.2-2.215a1.21 1.21 0 00-.457-.476 1.298 1.298 0 00-.652-.167 1.209 1.209 0 00-1.097.643 1.382 1.382 0 00-.163.679c-.005.236.05.47.163.68a1.21 1.21 0 001.097.642c.229.002.453-.056.652-.168a1.21 1.21 0 00.457-.475 1.385 1.385 0 00.005-1.316l-.005-.042z" fill="#fff"/></svg></svg>