<svg width="100" height="35" viewBox="0 0 100 35" fill="none" xmlns="http://www.w3.org/2000/svg">
<path d="M11.3009 1.1773e-06C13.6827 1.1773e-06 14.4311 1.68396 15.059 3.36527C15.3227 4.07924 21.5122 20.7868 21.6983 21.2883C21.7478 21.4282 21.7144 21.6579 21.4961 21.741C21.2766 21.8228 18.0607 23.0554 17.8826 23.1214C17.7045 23.1887 17.5051 23.0911 17.4408 22.9155C17.3738 22.7427 16.039 19.1002 15.8891 18.6938H6.71533C6.57073 19.1002 5.21984 22.7506 5.15959 22.9155C5.09801 23.0831 4.90655 23.1966 4.71644 23.1214C4.52632 23.0475 1.29838 21.8149 1.10558 21.741C0.920823 21.6697 0.836476 21.4625 0.90074 21.2883C1.12834 20.6628 7.22409 4.22309 7.5347 3.36527C8.13986 1.70903 8.91371 1.1773e-06 11.3009 1.1773e-06ZM0.410725 29.8955C0.217931 29.8955 0.0639648 30.0539 0.0639648 30.2466V34.1516C0.0639648 34.3443 0.217931 34.5 0.410725 34.5H22.1816C22.3784 34.5 22.5324 34.3443 22.5324 34.1516V30.2466C22.5324 30.0539 22.3784 29.8955 22.1816 29.8955H0.410725ZM11.2794 5.45571L8.17868 14.6343H14.4311L11.3196 5.45571H11.2794ZM57.8082 20.5057C57.3516 20.6575 57.0504 20.6945 56.6916 20.6945C55.9499 20.6945 55.5389 20.4054 55.5389 19.6558C55.5389 18.8746 56.061 18.6133 57.0866 18.6133C57.3369 18.6133 57.5833 18.6489 57.6984 18.6885V19.248C57.6984 19.8512 57.7319 20.2471 57.8082 20.5057ZM60.4444 21.4005C59.8968 20.581 59.7535 20.0979 59.7535 19.0646V16.9663C59.7535 15.8366 59.6196 15.4288 59.3171 15.017C58.8953 14.4337 58.1924 14.1803 56.9005 14.1803C55.986 14.1803 55.0984 14.278 54.2388 14.4944L54.5495 15.9857C55.1305 15.9052 55.7397 15.8366 56.1695 15.8366C57.5418 15.8366 57.6984 16.0319 57.6984 17.0468V17.4255C57.3932 17.345 57.0504 17.287 56.6528 17.287C54.5869 17.287 53.4958 18.2833 53.4958 19.933C53.4958 21.4797 54.6619 22.323 56.0824 22.323C56.6126 22.323 57.1669 22.2266 57.606 22.0498C57.8711 21.9363 57.9863 21.869 58.329 21.6499C58.5352 21.9455 58.9489 22.2478 59.1176 22.3045L60.4444 21.4005ZM80.8791 20.5057C80.4199 20.6575 80.124 20.6945 79.7625 20.6945C79.0181 20.6945 78.6017 20.4054 78.6017 19.6558C78.6017 18.8746 79.1306 18.6133 80.1588 18.6133C80.4092 18.6133 80.6569 18.6489 80.7693 18.6885V19.248C80.7693 19.8512 80.8015 20.2471 80.8791 20.5057ZM83.518 21.4005C82.9664 20.581 82.8258 20.0979 82.8258 19.0646V16.9663C82.8258 15.8366 82.6892 15.4288 82.384 15.017C81.9676 14.4337 81.2634 14.1803 79.9674 14.1803C79.0543 14.1803 78.1613 14.278 77.3017 14.4944L77.6083 15.9857C78.1907 15.9052 78.8012 15.8366 79.243 15.8366C80.6073 15.8366 80.7693 16.0319 80.7693 17.0468V17.4255C80.4641 17.345 80.124 17.287 79.7183 17.287C77.6498 17.287 76.5546 18.2833 76.5546 19.933C76.5546 21.4797 77.7235 22.323 79.1507 22.323C79.6875 22.323 80.2365 22.2266 80.6716 22.0498C80.9407 21.9363 81.0518 21.869 81.3946 21.6499C81.6034 21.9455 82.0171 22.2478 82.1872 22.3045L83.518 21.4005ZM99.6028 22.1475C99.6028 22.1475 98.4702 19.768 98.193 19.2269C97.8811 18.6172 97.5919 18.1962 96.9546 18.0445V18.0102C97.3817 17.9297 97.7217 17.6749 98.0939 16.8963C98.446 16.1375 98.5505 15.9738 98.758 15.793C98.9615 15.6136 99.24 15.6782 99.24 15.6782L99.3444 14.2754C99.0485 14.2358 98.7205 14.2345 98.3818 14.2529C97.8195 14.2859 97.5289 14.4456 97.2518 14.7201C97.0349 14.9299 96.8876 15.244 96.7056 15.6043C96.5128 15.9976 96.3601 16.3143 96.1593 16.7142C95.9598 17.1246 95.8661 17.3094 95.3292 17.3094H94.9798V11.0948H92.9113V22.1475H94.9798V18.9696L95.2623 18.9643C95.8554 18.9643 95.9598 19.1108 96.2731 19.7271C96.64 20.4622 97.3428 22.1475 97.3428 22.1475H99.6028ZM41.3311 22.1475H43.7182L40.1074 11.2796C39.7271 11.1542 39.2572 11.0764 38.7551 11.0764C38.2076 11.0764 38.0121 11.1476 37.5837 11.2796L33.7626 22.1475H36.0534C36.0534 22.1475 36.3626 21.1946 36.7268 20.0135H40.6844C41.0379 21.1933 41.3311 22.1475 41.3311 22.1475ZM37.3079 18.191C37.3079 18.191 37.9692 16.0095 38.0723 15.6703C38.3347 14.7914 38.7337 13.3951 38.7337 13.3951H38.7993C38.7993 13.3951 39.1688 14.8415 39.4098 15.6545C39.5009 15.9778 40.1328 18.191 40.1328 18.191H37.3079ZM63.9682 16.9478C63.2385 16.9478 62.6454 17.5351 62.6454 18.2543C62.6454 18.9788 63.2385 19.5621 63.9682 19.5621C64.6992 19.5621 65.2896 18.9788 65.2896 18.2543C65.2896 17.5351 64.6992 16.9478 63.9682 16.9478ZM46.5526 11.0948H44.4787V22.1461H46.5526V11.0948ZM87.7554 15.9369C88.9014 15.9606 89.0434 16.1942 89.0434 17.1418V22.1475H91.0985V16.9663C91.0985 15.8366 90.9646 15.4288 90.6593 15.017C90.2376 14.4337 89.4089 14.1803 88.0071 14.1803C86.6201 14.1803 85.7364 14.3255 84.5997 14.6594V22.1475H86.6763V16.0319C87.2212 15.954 87.3176 15.9369 87.7554 15.9369ZM51.6817 10.8982C50.3857 10.8982 49.6801 11.1516 49.265 11.7336C48.9598 12.1467 48.8246 12.5637 48.8246 13.696V14.6594H47.795V16.3117H48.8246V22.1475H50.881L50.8757 16.3117H52.9254V14.6594H50.8757L50.881 13.7739C50.881 12.7603 51.0377 12.5637 52.4113 12.5637C52.5599 12.5637 52.7273 12.5716 52.9054 12.5848L53.2294 10.9972C52.7219 10.9312 52.2025 10.8982 51.6817 10.8982ZM68.1815 11.0011C68.8871 10.9602 70.4643 10.9022 71.4537 10.9022C71.6344 10.9022 71.8218 10.9035 72.0093 10.9127C73.9546 10.9127 75.0699 12.309 75.0699 13.9481C75.0699 15.0632 74.5517 15.8036 73.3374 16.2444C74.766 16.5558 75.5144 17.6552 75.5144 18.9999C75.5144 19.9871 75.2319 20.771 74.7137 21.3055C74.0416 21.9574 73.0241 22.323 71.6692 22.323C70.4643 22.323 68.9514 22.286 68.1815 22.2412V11.0011ZM71.4537 12.8118C71.1109 12.8118 70.6865 12.8184 70.2661 12.8329V15.4869H71.455C71.9263 15.4869 72.3052 15.3575 72.5636 15.1081C72.8099 14.8732 72.9384 14.5406 72.9384 14.146C72.9384 13.2975 72.4725 12.8171 71.6063 12.8118H71.4537ZM71.4965 20.4173H71.5862C72.6667 20.4173 73.328 19.8512 73.3361 18.7109C73.3254 18.3018 73.166 17.9244 72.8809 17.6512C72.5689 17.3424 72.1271 17.1814 71.609 17.1814H70.2661V20.4054C70.645 20.4134 71.0627 20.4147 71.4965 20.4173Z" fill="#EE2A23"/>
</svg>
