<svg width="31" height="30" viewBox="0 0 31 30"  xmlns="http://www.w3.org/2000/svg">
<path d="M30.4875 11.9348C30.3823 11.611 30.1025 11.3749 29.7655 11.326L20.3007 9.95065L16.0678 1.37407C15.9171 1.06875 15.6062 0.875488 15.2657 0.875488C14.9252 0.875488 14.6143 1.06875 14.4636 1.37407L10.2305 9.95065L0.765837 11.326C0.42898 11.3749 0.149011 11.611 0.0438211 11.9348C-0.0614281 12.2586 0.0263491 12.6141 0.270181 12.8517L7.11871 19.5277L5.50223 28.9544C5.44463 29.29 5.58261 29.629 5.85805 29.8292C6.01387 29.9424 6.19842 30 6.38388 30C6.52628 30 6.66915 29.9661 6.79998 29.8973L15.2657 25.4465L23.731 29.8972C24.0324 30.0556 24.3975 30.0293 24.673 29.8292C24.9484 29.629 25.0865 29.2899 25.0289 28.9542L23.4119 19.5277L30.2612 12.8517C30.505 12.6141 30.5928 12.2586 30.4875 11.9348Z" fill="#17AADF"/>
</svg>
