<svg width="53" height="53" viewBox="0 0 53 53" fill="#17AADF" xmlns="http://www.w3.org/2000/svg">
<path fill-rule="evenodd" clip-rule="evenodd" d="M21.8385 0H18.7335V2.98901H21.8385V0ZM28.0486 0H24.9435V2.98901H28.0486V0ZM31.1536 0H34.2583V2.98901H31.1536V0ZM18.7335 42.6971V31.8618C21.0262 33.1935 23.6557 34.0125 26.4959 34.0125C29.3361 34.0125 31.9657 33.1935 34.2584 31.8618V42.6987L26.5008 38.8334L18.7335 42.6971ZM46.5027 30.51C46.7231 29.3172 46.846 28.0343 46.9042 26.6942C50.7792 24.9986 51.8103 22.9933 52.2478 22.0595C53.4839 19.4176 53.1629 16.47 51.5321 12.6128C45.6236 14.4284 44.3228 17.0333 43.806 18.1375C42.7838 20.3216 42.8801 22.7481 43.8473 25.692C43.817 28.222 43.4381 30.4347 42.8182 32.4098C41.2909 33.7756 40.3225 35.702 39.7697 38.3226C38.1964 40.3927 36.1908 42.0779 34.1637 43.5122C32.2572 43.9165 30.4489 45.0569 28.5707 46.8967C28.1783 47.1082 27.8044 47.3075 27.4536 47.4946L27.4497 47.4967L27.4489 47.4971L27.4479 47.4977L27.4474 47.4979C27.107 47.6794 26.7885 47.8493 26.4959 48.0073C26.2466 47.8727 25.957 47.7183 25.6378 47.5482L25.6372 47.5479L25.633 47.5456L25.6327 47.5455L25.6321 47.5451L25.6318 47.545L25.6284 47.5432L25.6275 47.5427L25.6233 47.5405L25.6221 47.5398L25.6195 47.5384C25.2731 47.3538 24.8923 47.1508 24.4907 46.9346C22.1022 44.5999 20.1835 43.751 18.8285 43.4623C16.5726 41.8327 14.6636 40.0883 13.2314 38.2083C12.4679 34.7481 11.1477 33.1539 10.1833 32.3212C9.54283 30.2764 9.21813 28.0601 9.19427 25.6481C10.595 21.2868 9.64311 19.1071 9.18942 18.1375C7.95249 15.4955 5.47661 13.8462 1.46337 12.6128C-0.936087 18.2877 0.230888 20.9558 0.747656 22.0595C1.71407 24.124 3.46858 25.572 6.09083 26.6995C6.14704 28.0359 6.28856 29.3225 6.51945 30.5579C4.69054 30.1588 2.58869 30.2337 0 30.8224C0.769896 36.9322 3.12204 38.66 4.12404 39.3587C6.50813 41.0201 9.30668 41.0282 11.2464 40.768C12.1303 41.8436 13.2633 42.866 14.3834 43.8577C12.5452 44.5399 10.7741 45.851 8.88656 47.9267C13.0369 52.491 15.958 52.6678 17.1811 52.6678C19.3994 52.6678 21.4006 51.6732 23.4673 49.8958C24.8522 50.65 26.3232 51.4477 26.4963 51.5399C26.576 51.4976 28.0697 50.6919 29.5561 49.8825C32.6199 52.4733 34.8038 52.6682 35.8143 52.6682C38.7407 52.6682 41.2881 51.0285 44.1089 47.9267C41.9601 45.5639 40.149 44.4162 38.7241 43.8477C39.7742 42.9195 40.8781 41.8979 41.7988 40.7648C43.7446 41.0133 46.5249 40.9907 48.8698 39.3587C51.2664 37.686 52.4678 34.9732 52.9922 30.8224C50.0784 30.1621 47.996 30.2108 46.5027 30.51ZM27.9119 15.4602C27.9956 16.3976 28.0486 17.4232 28.0486 18.5522C28.0486 19.6817 27.9956 20.7069 27.9119 21.6443H25.0798C24.9965 20.7069 24.9435 19.6817 24.9435 18.5522C24.9435 17.4232 24.9965 16.3976 25.0798 15.4602H27.9119ZM38.9161 18.5522C38.9161 17.4783 38.7345 16.4544 38.4749 15.4602H31.0121C31.1387 16.9758 31.1537 18.1846 31.1537 18.5522C31.1537 18.9199 31.1387 20.1291 31.0121 21.6443H38.4749C38.7345 20.6501 38.9161 19.6261 38.9161 18.5522ZM26.4959 27.5642C26.1926 27.0742 25.8335 26.1086 25.5355 24.7363H27.4562C27.1586 26.1086 26.7995 27.0742 26.4959 27.5642ZM15.8039 12.3687H22.384C22.9521 9.26673 24.111 6.08105 26.4959 6.08105C28.8812 6.08105 30.0401 9.26673 30.6082 12.3687H37.1883C35.0335 8.68968 31.072 6.08105 26.4959 6.08105C21.9198 6.08105 17.9583 8.68968 15.8039 12.3687ZM37.1883 24.7363H30.6082C30.0397 27.8382 28.8812 30.9207 26.4959 30.9207C24.1106 30.9207 22.9521 27.8382 22.384 24.7363H15.8039C17.9583 28.4152 21.9198 30.9207 26.4959 30.9207C31.072 30.9207 35.0335 28.4152 37.1883 24.7363ZM13.9725 18.5522C13.9725 19.6261 14.1541 20.6501 14.4137 21.6443H21.98C21.853 20.1291 21.8385 18.9199 21.8385 18.5522C21.8385 18.1846 21.853 16.9758 21.98 15.4602H14.4137C14.1541 16.4544 13.9725 17.4788 13.9725 18.5522ZM26.4959 9.4375C26.7995 9.92717 27.1586 10.9959 27.4562 12.3687H25.5355C25.8335 10.9959 26.1926 9.92717 26.4959 9.4375Z" fill="#17AADF"/>
</svg>
