<svg width="53" height="49" viewBox="0 0 53 49" fill="#17AADF" xmlns="http://www.w3.org/2000/svg">
<path fill-rule="evenodd" clip-rule="evenodd" d="M42.6788 12.7218C42.8458 12.7793 43.0176 12.8071 43.1879 12.8071C43.6238 12.8071 44.0491 12.6239 44.3492 12.2877C46.0309 10.4016 46.4801 7.78457 45.5513 5.28799C44.6654 2.90779 42.6214 0.962869 40.0828 0.0854423C39.4888 -0.119519 38.8297 0.0516177 38.4124 0.519928C36.7311 2.40605 36.2814 5.02263 37.2106 7.51921C38.0962 9.89942 40.1402 11.8443 42.6788 12.7218ZM43.0552 17.6663C42.627 20.1685 43.4208 22.8709 45.1785 24.8947C45.479 25.2406 45.9104 25.4294 46.3536 25.4294C46.5169 25.4294 46.6823 25.4037 46.8433 25.3505C49.2468 24.554 50.9495 22.5121 51.3984 19.8874C51.8266 17.3848 51.0328 14.6829 49.2747 12.659C48.8638 12.1855 48.2068 12.0055 47.6103 12.2032C45.2068 12.9997 43.5041 15.0421 43.0552 17.6663ZM51.6216 26.7127C52.237 26.8383 52.7158 27.3215 52.8342 27.936C53.3405 30.5638 52.6713 33.2992 51.0441 35.2534C49.6467 36.9317 47.7163 37.853 45.7005 37.853C45.2549 37.853 44.8053 37.8083 44.3565 37.7165C43.7406 37.5905 43.2619 37.1077 43.1434 36.4928C42.6371 33.865 43.3067 31.1296 44.9335 29.1758C46.6403 27.1262 49.1404 26.2057 51.6216 26.7127ZM47.0754 41.0396C45.1814 39.3653 42.5538 38.9175 40.0472 39.8428C37.6567 40.7247 35.7036 42.7607 34.8225 45.2887C34.6167 45.8798 34.7885 46.5366 35.2588 46.9522C36.5026 48.0519 38.0626 48.6221 39.6975 48.6221C40.5519 48.6221 41.4269 48.4662 42.2874 48.1489C44.6775 47.2667 46.6306 45.2311 47.5117 42.7031C47.7175 42.1119 47.5456 41.4552 47.0754 41.0396ZM10.3212 12.7218C10.1542 12.7793 9.98237 12.8071 9.81214 12.8071C9.37624 12.8071 8.95085 12.6239 8.65082 12.2877C6.96909 10.4016 6.51985 7.78505 7.44866 5.2885C8.33461 2.90792 10.3786 0.963032 12.9172 0.0856169C13.5112 -0.119341 14.1707 0.0521954 14.5876 0.520096C16.2689 2.4062 16.7186 5.02274 15.7894 7.51888C14.9038 9.89946 12.8594 11.8443 10.3212 12.7218ZM6.15673 25.3504C6.31767 25.4035 6.48265 25.4297 6.64641 25.4297C7.08959 25.4297 7.52104 25.2404 7.82147 24.8949C9.57922 22.8707 10.373 20.1688 9.94476 17.6667C9.49592 15.0421 7.79317 12.9998 5.39007 12.2033C4.79324 12.006 4.13656 12.1856 3.72533 12.6591C1.96758 14.6829 1.17342 17.3852 1.60164 19.8874C2.05048 22.512 3.75323 24.5543 6.15673 25.3504ZM9.85662 36.4928C9.73814 37.1077 9.25938 37.5905 8.64395 37.7161C8.19471 37.8083 7.74506 37.853 7.29946 37.853C5.28373 37.853 3.35373 36.9317 1.95586 35.2529C0.328724 33.2992 -0.340489 30.5638 0.165768 27.9359C0.284245 27.321 0.763005 26.8382 1.37844 26.7126C3.85918 26.2052 6.35973 27.1261 8.06652 29.1754C9.69326 31.1295 10.3629 33.8649 9.85662 36.4928ZM12.9532 39.8427C10.4462 38.9173 7.81866 39.3647 5.92464 41.0395C5.45438 41.4551 5.28252 42.1114 5.48834 42.703C6.36944 45.231 8.32249 47.2666 10.7126 48.1485C11.5731 48.4662 12.4482 48.6221 13.3026 48.6221C14.937 48.6221 16.4974 48.0515 17.7412 46.9517C18.2115 46.5366 18.3833 45.8798 18.1775 45.2886C17.2964 42.7602 15.3434 40.7246 12.9532 39.8427ZM14.3555 27.6086H20.5665C21.4241 27.6086 22.1192 28.3008 22.1192 29.1549C22.1192 31.6562 20.076 33.6904 17.5641 33.6904H17.3579C14.846 33.6904 12.8028 31.6558 12.8028 29.1549C12.8028 28.3008 13.4979 27.6086 14.3555 27.6086ZM30.5557 35.5715H28.2784V19.2841H33.3733L31.5504 24.5161H34.7461L35.5188 22.0566L36.2713 24.5161H39.4573L36.9992 17.212C36.9147 16.9905 36.7788 16.7912 36.6057 16.6289C36.4472 16.4803 36.2644 16.3615 36.0598 16.2862C35.8888 16.2234 35.7068 16.1912 35.5245 16.1912H28.2784V12.8409C28.2784 11.9873 27.5833 11.2947 26.7256 11.2947C25.868 11.2947 25.1729 11.9873 25.1729 12.8409V16.1912H17.5127C17.2653 16.1912 17.032 16.2504 16.8245 16.3531C16.4655 16.5162 16.1739 16.8125 16.0235 17.1935L13.4724 24.5161H16.668L17.4408 22.0566L18.1933 24.5161H21.3792L19.6182 19.2841H25.1729V35.5715H22.8956C22.0379 35.5715 21.3428 36.2637 21.3428 37.1178C21.3428 37.9719 22.0379 38.6641 22.8956 38.6641H30.5557C31.4134 38.6641 32.1085 37.9719 32.1085 37.1178C32.1085 36.2637 31.4134 35.5715 30.5557 35.5715ZM40.1972 29.1549C40.1972 31.6562 38.154 33.6904 35.6421 33.6904H35.4359C32.924 33.6904 30.8808 31.6558 30.8808 29.1549C30.8808 28.3008 31.5759 27.6086 32.4336 27.6086H38.6445C39.5021 27.6086 40.1972 28.3008 40.1972 29.1549Z" fill="#17AADF"/>
</svg>
