<svg width="94" height="34" viewBox="0 0 94 34" fill="none" xmlns="http://www.w3.org/2000/svg">
<path d="M62.4706 7.17065V23.0694C62.4706 23.3085 62.2767 23.5005 62.035 23.5005H58.754C58.5123 23.5005 58.3184 23.3085 58.3184 23.0694V7.17065C58.3184 6.93152 58.5123 6.73959 58.754 6.73959H62.035C62.2767 6.73959 62.4706 6.93152 62.4706 7.17065ZM88.0419 6.73959H84.3698C84.1791 6.73959 84.0074 6.8623 83.9533 7.04164L81.0474 16.4368L77.8554 7.0322C77.795 6.85601 77.6296 6.73959 77.4421 6.73959H74.8795C74.6919 6.73959 74.5234 6.85915 74.4662 7.0322L71.2742 16.4368L68.3683 7.04164C68.311 6.8623 68.1425 6.73959 67.9518 6.73959H64.2796C64.1398 6.73959 64.0062 6.80566 63.9267 6.91893C63.8441 7.02906 63.8218 7.17379 63.8663 7.30594L69.2585 23.211C69.3189 23.3872 69.4842 23.5036 69.6718 23.5036H72.5872C72.7748 23.5036 72.9433 23.384 73.0005 23.211L76.164 13.9197L79.3274 23.211C79.3878 23.3872 79.5531 23.5036 79.7407 23.5036H82.6562C82.8437 23.5036 83.0122 23.384 83.0695 23.211L88.4616 7.30594C88.5061 7.17379 88.4839 7.0322 88.4012 6.91893C88.3154 6.80566 88.1818 6.73959 88.0419 6.73959ZM93.5644 6.73959H90.2834C90.0417 6.73959 89.8478 6.93152 89.8478 7.17065V23.0694C89.8478 23.3085 90.0417 23.5005 90.2834 23.5005H93.5644C93.8061 23.5005 94 23.3085 94 23.0694V7.17065C94 6.93152 93.8061 6.73959 93.5644 6.73959ZM56.4172 22.9561C56.6079 23.1669 56.4521 23.5036 56.1628 23.5036H52.141C51.9788 23.5036 51.823 23.4312 51.7181 23.3054L51.0377 22.4936C49.6484 23.384 47.9951 23.9032 46.2211 23.9032C41.3249 23.9032 37.3444 19.9608 37.3444 15.1185C37.3444 10.2761 41.3281 6.3337 46.2211 6.3337C51.1172 6.3337 55.0977 10.2761 55.0977 15.1185C55.0977 16.8647 54.5795 18.4914 53.6861 19.8601L56.4172 22.9561ZM48.4466 19.4133L46.6852 17.3178C46.5008 17.0975 46.6598 16.764 46.946 16.764H50.6308C50.8057 16.248 50.9042 15.6942 50.9042 15.1216C50.9042 12.4944 48.9298 10.2321 46.2179 10.2321C43.5059 10.2321 41.5316 12.4975 41.5316 15.1216C41.5316 17.7488 43.5059 19.9796 46.2179 19.9796C47.0445 19.9796 47.7948 19.772 48.4466 19.4133ZM27.2691 22.8743C27.3677 23.5382 27.1578 23.812 26.9448 23.812C26.7127 23.812 26.4234 23.5445 26.08 23.0128C25.7398 22.4905 25.6158 21.8895 25.7843 21.5875C25.8956 21.3861 26.1277 21.298 26.4202 21.4081C26.9893 21.6221 27.2119 22.481 27.2691 22.8743ZM24.1343 24.3185C24.8147 24.888 25.0213 25.5645 24.662 26.0396C24.4617 26.3008 24.1375 26.4455 23.7496 26.4455C23.3681 26.4455 22.9802 26.3071 22.7099 26.0742C22.0931 25.5393 21.9119 24.6741 22.3125 24.1801C22.4715 23.9882 22.7258 23.8812 23.0342 23.8812C23.4062 23.8843 23.7973 24.0385 24.1343 24.3185ZM22.9961 29.809C25.9242 29.809 29.1004 30.8033 32.6167 33.8867C32.9696 34.1951 33.437 33.8112 33.1318 33.4274C29.6758 29.1105 26.4806 28.2893 23.2918 27.5939C19.3939 26.7444 17.3877 24.5734 15.9888 22.1884C15.7122 21.7133 15.5851 21.7983 15.5596 22.4087C15.5278 23.1544 15.5819 24.1423 15.7504 25.1114C15.5946 25.1177 15.4356 25.1177 15.2767 25.1177C9.70013 25.1177 5.17595 20.6435 5.17595 15.1216C5.17595 9.59967 9.69695 5.12549 15.2767 5.12549C20.8532 5.12549 25.3774 9.59967 25.3774 15.1216C25.3774 15.5149 25.3583 15.9019 25.3138 16.2826C24.5762 16.1505 23.1232 16.1347 22.1059 16.2228C21.7243 16.2543 21.7752 16.4336 22.0677 16.484C25.406 17.0818 27.7015 19.1301 28.2229 22.8429C28.2356 22.9278 28.3469 22.953 28.3914 22.8806C29.7649 20.6121 30.5533 17.9565 30.5533 15.1185C30.5565 6.76791 23.7146 0 15.2767 0C6.83873 0 0 6.76791 0 15.1185C0 23.469 6.83873 30.2401 15.2767 30.2401C17.5181 30.2401 19.7373 29.809 22.9961 29.809Z" fill="#FF8C00"/>
</svg>
