<svg width="92" height="18" viewBox="0 0 92 18" fill="none" xmlns="http://www.w3.org/2000/svg">
<path d="M24.0543 10.5569C24.4466 10.9636 24.9217 11.2841 25.4484 11.4973C26.0894 11.7328 26.7697 11.8473 27.4537 11.835C27.845 11.835 28.211 11.7871 28.5114 11.7621C28.8114 11.7238 29.1064 11.6539 29.3913 11.5536C29.66 11.4806 29.88 11.3597 30.1 11.2888C30.274 11.1909 30.4534 11.1025 30.6373 11.024L30.3644 10.4589C30.2184 10.5319 30.0704 10.6028 29.899 10.6674C29.7396 10.7397 29.5765 10.8037 29.4104 10.8592C29.2126 10.9249 29.0072 10.9655 28.799 10.9802C28.5321 11.0233 28.2613 11.0394 27.991 11.0281C27.5034 11.0461 27.0205 10.929 26.597 10.6904C26.2403 10.4713 25.9392 10.1746 25.717 9.82297C25.5073 9.41398 25.3645 8.97486 25.2939 8.5219C25.2139 7.97914 25.1729 7.4315 25.1712 6.88305C25.1712 6.42434 25.2199 5.94269 25.2453 5.46104C25.2823 5.02438 25.4006 4.59817 25.5943 4.20376C25.7686 3.8362 26.028 3.5141 26.3516 3.2634C26.7614 3.00754 27.2373 2.87361 27.7223 2.87767C28.2117 2.87135 28.6906 3.01727 29.091 3.29468C29.4823 3.55948 29.7023 3.99317 29.7996 4.57281H30.4109V2.72337C30.2163 2.6504 30.0196 2.5795 29.7996 2.51487C29.5694 2.44158 29.3318 2.39334 29.091 2.371C28.8223 2.32304 28.6023 2.32304 28.3337 2.29802C28.1221 2.29802 27.8683 2.25006 27.6991 2.25006C26.9751 2.2385 26.2547 2.35285 25.571 2.58784C25.014 2.79084 24.5156 3.12489 24.1193 3.56094C23.723 3.99699 23.4407 4.52186 23.2971 5.0899C23.1022 5.75564 23.0116 6.44681 23.0284 7.13951C23.0129 7.80063 23.1036 8.46 23.2971 9.0932C23.4242 9.63481 23.6843 10.1374 24.0543 10.5569Z" fill="#2F9A41"/>
<path d="M61.1552 11.5221C61.5934 11.4781 62.018 11.3468 62.4033 11.1364C62.7906 10.9231 63.0988 10.5937 63.2832 10.196C63.5338 9.66919 63.6514 9.09046 63.6259 8.50918C63.6417 8.06607 63.5698 7.62418 63.4144 7.20811C63.2653 6.8524 63.0203 6.54376 62.7058 6.3157C62.3104 6.07165 61.8695 5.90789 61.4091 5.83405C60.7724 5.71772 60.1249 5.66948 59.4778 5.69018H58.6697V3.4696C58.6592 3.38729 58.6668 3.30372 58.692 3.22456C58.7172 3.14541 58.7593 3.07253 58.8157 3.01089C59.0103 2.93746 59.2202 2.9124 59.427 2.93791H60.5756C60.8698 2.92696 61.1644 2.94302 61.4556 2.98587C61.6501 2.99721 61.8369 3.06464 61.9929 3.17978C62.1466 3.29984 62.2649 3.45821 62.3356 3.63849C62.4474 3.89547 62.5372 4.16119 62.6042 4.4329H63.0781V2.36035H56.0975V2.65017C56.1461 2.65017 56.1715 2.69813 56.2921 2.69813C56.4148 2.74609 56.4888 2.77111 56.5036 2.81906C56.5541 2.88266 56.5954 2.95282 56.6263 3.02757C56.6263 3.1485 56.675 3.23607 56.675 3.4133V10.5484C56.686 10.6789 56.6695 10.8102 56.6263 10.9341C56.6263 11.055 56.5777 11.1259 56.5036 11.1426C56.4514 11.2081 56.3757 11.2514 56.2921 11.2635C56.2321 11.2947 56.1653 11.3111 56.0975 11.3115V11.6013H59.6195C60.1325 11.6011 60.6451 11.5747 61.1552 11.5221ZM58.8474 10.8465C58.8086 10.8139 58.7774 10.7733 58.7562 10.7275C58.735 10.6818 58.7243 10.632 58.7247 10.5817C58.7247 10.4608 58.6761 10.3169 58.6761 10.123V6.24272H59.4841C60.1928 6.24272 60.7322 6.43455 61.0495 6.79735C61.3668 7.16015 61.5148 7.76064 61.5148 8.58216C61.5278 9.02043 61.4786 9.45834 61.3689 9.88323C61.2895 10.1614 61.1445 10.4172 60.9458 10.6297C60.7719 10.763 60.5831 10.8763 60.3831 10.9675C60.1579 11.0155 59.9282 11.04 59.6978 11.0404C59.4862 10.9925 59.2747 10.9925 59.1605 10.9675C59.0444 10.9672 58.9327 10.9241 58.8474 10.8465Z" fill="#2F9A41"/>
<path d="M51.1772 11.3053C51.1286 11.3053 51.1032 11.2574 50.9826 11.2574C50.8599 11.2094 50.7859 11.1844 50.7711 11.1365C50.7563 11.0885 50.697 11.0155 50.6484 10.9279C50.6484 10.807 50.5997 10.7194 50.5997 10.5422V7.97757H51.5537C52.021 7.97527 52.4873 7.93482 52.9477 7.85663C53.3622 7.79176 53.7606 7.65027 54.1217 7.43962C54.4748 7.22757 54.756 6.91698 54.9298 6.54721C55.1467 6.06197 55.2473 5.534 55.2238 5.00425C55.2316 4.51732 55.1402 4.03379 54.9552 3.58224C54.767 3.25849 54.5066 2.98114 54.1937 2.77114C53.8581 2.57693 53.4818 2.46137 53.0937 2.43336C52.6633 2.3837 52.2303 2.35933 51.797 2.36038H48.0719V2.65021C48.1206 2.65021 48.1459 2.69817 48.2686 2.69817C48.3913 2.74612 48.4632 2.77114 48.4802 2.8191C48.5307 2.88265 48.572 2.95283 48.6028 3.02761C48.6028 3.14854 48.6515 3.23611 48.6515 3.41334V10.5255C48.6628 10.656 48.6463 10.7875 48.6028 10.9113C48.6028 11.0322 48.5542 11.1031 48.4802 11.1198C48.428 11.1853 48.3522 11.2286 48.2686 11.2407C48.208 11.2722 48.1404 11.2886 48.0719 11.2887V11.5535H51.1539L51.1772 11.2887V11.3053ZM50.6632 3.39875C50.6575 3.32599 50.6745 3.25325 50.7118 3.19024C50.7139 3.16262 50.7215 3.13567 50.7342 3.11096C50.7469 3.08626 50.7645 3.0643 50.7859 3.04637C50.8442 2.99606 50.92 2.96991 50.9974 2.97339C51.1201 2.97339 51.2089 2.92544 51.4205 2.92544C51.6501 2.93776 51.8789 2.96212 52.1058 2.99842C52.3145 3.07273 52.5058 3.1876 52.6685 3.3362C52.8291 3.52483 52.961 3.73556 53.0599 3.96172C53.1429 4.27623 53.1841 4.60004 53.1825 4.92502C53.1825 5.71943 53.0599 6.29908 52.8399 6.70984C52.6199 7.1206 52.2053 7.33537 51.6172 7.33537H50.6632V3.39875Z" fill="#2F9A41"/>
<path d="M46.8492 9.47275H46.2379C46.1848 9.76576 46.1142 10.0554 46.0263 10.3402C45.9853 10.5284 45.8818 10.6979 45.7323 10.8218C45.6607 10.8882 45.5761 10.9394 45.4837 10.9724C45.3913 11.0054 45.2931 11.0194 45.195 11.0137C44.8792 11.0593 44.5598 11.0753 44.241 11.0616C43.9468 11.0758 43.6519 11.0597 43.361 11.0137C43.1908 10.9945 43.0254 10.9458 42.8724 10.8698C42.8185 10.8407 42.7727 10.7991 42.7388 10.7486C42.7048 10.6981 42.6839 10.6402 42.6778 10.58C42.6326 10.4072 42.6162 10.2283 42.6291 10.0503V7.11029H44.2516C44.3975 7.11029 44.5456 7.15825 44.7169 7.15825C44.8735 7.17252 45.029 7.1969 45.1823 7.23123C45.3178 7.26446 45.4491 7.31273 45.5736 7.3751V6.16989C45.4559 6.24632 45.3221 6.29551 45.1823 6.31377C44.8751 6.36997 44.5651 6.41034 44.2537 6.4347H42.6143V3.36956C42.6148 3.22741 42.6398 3.08638 42.6883 2.95253C42.7624 2.87955 42.8851 2.87955 43.0797 2.87955H44.1077C44.4019 2.86863 44.6965 2.88468 44.9877 2.92751C45.181 2.94268 45.3666 3.00895 45.525 3.11934C45.6787 3.23941 45.797 3.39778 45.8677 3.57807C45.9794 3.83581 46.0692 4.10223 46.1363 4.37459H46.625V2.36035H40.0992V2.65019C40.1478 2.65019 40.1732 2.69814 40.2938 2.69814C40.4165 2.7461 40.4884 2.77112 40.5053 2.81908C40.5558 2.88263 40.5971 2.95281 40.628 3.02759C40.628 3.14853 40.6767 3.23611 40.6767 3.41334V10.5257C40.6879 10.6563 40.6713 10.7876 40.628 10.9115C40.628 11.0324 40.5794 11.1033 40.5053 11.12C40.4531 11.1855 40.3774 11.2288 40.2938 11.2409C40.2338 11.2721 40.167 11.2885 40.0992 11.2889V11.5537H46.8492V9.47275Z" fill="#2F9A41"/>
<path d="M36.5285 11.5222C36.9667 11.4782 37.3913 11.347 37.7766 11.1365C38.1657 10.9178 38.4807 10.5906 38.6819 10.1961C38.9327 9.66934 39.0503 9.09057 39.0246 8.50926C39.0405 8.06614 38.9686 7.62422 38.8131 7.20817C38.664 6.85246 38.419 6.54381 38.1045 6.31575C37.7091 6.0717 37.2682 5.90794 36.8077 5.8341C36.1711 5.71773 35.5236 5.66949 34.8764 5.69023H34.0684V3.46962C34.058 3.38731 34.0656 3.30377 34.0908 3.22464C34.116 3.1455 34.1581 3.07261 34.2143 3.0109C34.4089 2.93747 34.6189 2.91241 34.8257 2.93792H35.9743C36.2685 2.92698 36.5631 2.94304 36.8543 2.98588C37.0478 3.00167 37.2335 3.06866 37.3916 3.17979C37.5452 3.29985 37.6636 3.45823 37.7343 3.63851C37.8462 3.89545 37.936 4.16119 38.0029 4.43292H38.4916V2.36035H31.4897V2.65018C31.5384 2.65018 31.5638 2.69813 31.6865 2.69813C31.8092 2.74609 31.8811 2.77111 31.898 2.81907C31.9485 2.88267 31.9897 2.95283 32.0207 3.02758C32.0207 3.14851 32.0694 3.23609 32.0694 3.41332V10.5255C32.0788 10.656 32.0622 10.787 32.0207 10.9113C32.0207 11.0322 31.972 11.1031 31.898 11.1198C31.8458 11.1853 31.7701 11.2286 31.6865 11.2407C31.6258 11.2722 31.5583 11.2886 31.4897 11.2887V11.6265H35.0118C35.5787 11.5952 36.0378 11.5952 36.5285 11.5222ZM34.2291 10.8466C34.1903 10.814 34.1592 10.7734 34.138 10.7277C34.1168 10.6819 34.106 10.6321 34.1064 10.5818C34.1064 10.4609 34.0578 10.317 34.0578 10.1231V6.24278H34.8658C35.5745 6.24278 36.1139 6.43461 36.4312 6.79741C36.7485 7.16021 36.8966 7.76072 36.8966 8.58224C36.9093 9.02051 36.8602 9.45839 36.7506 9.88333C36.6712 10.1615 36.5262 10.4173 36.3276 10.6298C36.1537 10.7632 35.9649 10.8765 35.7649 10.9676C35.5397 11.0157 35.3099 11.0401 35.0795 11.0406C34.868 10.9926 34.6882 10.9926 34.5422 10.9676C34.4844 10.9696 34.4268 10.9599 34.3729 10.9391C34.3191 10.9183 34.2702 10.8868 34.2291 10.8466Z" fill="#2F9A41"/>
<path d="M91.8022 14.2205H22.9798V15.113H91.8022V14.2205Z" fill="#2F9A41"/>
<path d="M86.2981 8.12359C86.4948 8.3884 86.6408 8.60526 86.8354 8.82211C86.9813 9.03063 87.1781 9.28085 87.324 9.4977C87.4706 9.73393 87.6339 9.95969 87.8127 10.1733C87.9927 10.4108 88.156 10.6602 88.3013 10.9198C88.4473 11.1283 88.57 11.4014 88.6927 11.6183L91.8657 11.6663C91.523 11.3285 91.2311 10.9907 90.8884 10.6529C90.5943 10.3151 90.3257 10.0273 90.129 9.83341C89.8349 9.49562 89.5663 9.20787 89.323 8.94097C89.0798 8.67407 88.8344 8.38632 88.6144 8.1215C88.3876 7.86013 88.1758 7.58655 87.9798 7.30204C87.8084 7.03722 87.5567 6.69943 87.3685 6.40959L87.5144 6.21776C87.7259 5.92792 88.0031 5.61515 88.3225 5.25442C88.614 4.87114 88.9328 4.50879 89.2765 4.17014C89.5858 3.81664 89.9142 3.47975 90.2601 3.16093C90.5376 2.9093 90.8315 2.67596 91.1401 2.4624H88.938C88.8388 2.6947 88.7243 2.92037 88.5954 3.13799C88.4408 3.43793 88.2611 3.7246 88.0581 3.99499C87.8634 4.28482 87.635 4.62053 87.4467 4.95833C87.2585 5.29612 87.0237 5.58387 86.8121 5.89873C86.6006 6.21359 86.3891 6.50134 86.2008 6.71819C86.0062 6.98301 85.8581 7.17693 85.7354 7.34374C85.9068 7.59187 86.1014 7.85877 86.2981 8.12359Z" fill="#2F9A41"/>
<path d="M86.0294 11.3055C85.9808 11.3055 85.9554 11.2576 85.8327 11.2576C85.71 11.2096 85.6381 11.1846 85.6212 11.1366C85.5706 11.0731 85.5293 11.0029 85.4985 10.9281C85.4985 10.8072 85.4498 10.7196 85.4498 10.5424V3.4531C85.4385 3.32258 85.4551 3.19117 85.4985 3.06736C85.4985 2.94642 85.5471 2.87553 85.6212 2.85885C85.6856 2.80903 85.7568 2.76833 85.8327 2.73792C85.8934 2.70646 85.9609 2.69 86.0294 2.68996V2.3772H82.9474V2.66702C82.996 2.66702 83.0214 2.71498 83.1441 2.71498C83.2668 2.76294 83.3387 2.78796 83.3556 2.83592C83.4062 2.89942 83.4475 2.96961 83.4783 3.04442C83.4783 3.16536 83.527 3.25293 83.527 3.43016V10.5424C83.5383 10.6729 83.5218 10.8043 83.4783 10.9281C83.4783 11.049 83.4297 11.1199 83.3556 11.1366C83.3036 11.2023 83.2278 11.2456 83.1441 11.2576C83.0834 11.289 83.0159 11.3055 82.9474 11.3055V11.5703H86.0294V11.3055Z" fill="#2F9A41"/>
<path d="M65.6165 10.4862C65.7392 9.95656 65.9592 9.20799 66.2511 8.26759H69.2591L69.6821 9.4728C69.8587 9.91091 70.0002 10.362 70.1052 10.8219C70.2072 11.0852 70.2727 11.3608 70.2998 11.6414H72.6965C72.5738 11.4495 72.4849 11.1826 72.3051 10.8949C72.0996 10.4722 71.9202 10.0377 71.7678 9.59374L69.5933 3.51762C69.5034 3.3 69.4375 3.07351 69.3966 2.84203C69.3479 2.6502 69.3479 2.50424 69.3225 2.3833H66.6339V2.67314C66.6826 2.67314 66.708 2.7211 66.8286 2.7211C66.9512 2.76905 67.0232 2.79408 67.0401 2.84203C67.0907 2.90556 67.1319 2.97574 67.1628 3.05055V3.24238C67.1648 3.44948 67.1231 3.65472 67.0401 3.84499L65.5234 7.50859C65.2547 8.18418 64.9861 8.78679 64.8148 9.2205C64.6434 9.65421 64.4234 10.0879 64.3261 10.3778C64.1802 10.6676 64.0575 10.9324 63.9348 11.1242C63.8368 11.2801 63.7471 11.4408 63.6661 11.6059H65.3774C65.4344 11.2283 65.5143 10.8544 65.6165 10.4862ZM67.7699 3.88044L69.001 7.61702H66.4139L67.7699 3.88044Z" fill="#2F9A41"/>
<path d="M76.2693 11.3052H76.1931C76.1445 11.3052 76.1191 11.2573 75.9964 11.2573C75.8737 11.2093 75.8018 11.1843 75.7849 11.1364C75.7344 11.0728 75.6931 11.0026 75.6622 10.9278C75.6622 10.8069 75.6136 10.7193 75.6136 10.5421V6.99752H79.2583V10.5171C79.2696 10.6476 79.253 10.779 79.2096 10.9028C79.2096 11.0238 79.161 11.0946 79.0869 11.1113C79.0347 11.1769 78.959 11.2201 78.8754 11.2323C78.8154 11.2634 78.7486 11.2798 78.6808 11.2802V11.57H81.7628V11.2802C81.7142 11.2802 81.6888 11.2323 81.5682 11.2323C81.4455 11.1843 81.3715 11.1593 81.3567 11.1113C81.3059 11.0479 81.2646 10.9777 81.234 10.9028C81.234 10.7819 81.1853 10.6943 81.1853 10.5171V3.36952C81.174 3.239 81.1906 3.10759 81.234 2.98378C81.234 2.86285 81.2826 2.79196 81.3567 2.77528C81.4212 2.7255 81.4924 2.6848 81.5682 2.65434C81.6282 2.62321 81.695 2.60676 81.7628 2.60639V2.36035H78.7315V2.65017C78.7802 2.65017 78.8056 2.69813 78.9262 2.69813C79.0489 2.74609 79.1229 2.77111 79.1377 2.81906C79.1882 2.88261 79.2295 2.95279 79.2604 3.02757C79.2604 3.1485 79.309 3.23607 79.309 3.4133V6.38659H75.7087V3.39871C75.6976 3.2682 75.7142 3.13684 75.7574 3.01297C75.7574 2.89204 75.806 2.82115 75.8801 2.80447C75.9445 2.75458 76.0157 2.71387 76.0916 2.68353C76.1507 2.6501 76.2181 2.6335 76.2862 2.63558V2.36035H73.2126V2.65017C73.2613 2.65017 73.2867 2.69813 73.4073 2.69813C73.5299 2.74609 73.6019 2.77111 73.6188 2.81906C73.6692 2.88266 73.7105 2.95282 73.7415 3.02757C73.7415 3.1485 73.7901 3.23607 73.7901 3.4133V10.5484C73.7996 10.6788 73.7831 10.8099 73.7415 10.9341C73.7415 11.055 73.6928 11.1259 73.6188 11.1426C73.5666 11.2081 73.4909 11.2514 73.4073 11.2635C73.3472 11.2947 73.2805 11.3111 73.2126 11.3115V11.6013H76.2947L76.2693 11.2886V11.3052Z" fill="#2F9A41"/>
<path d="M16.7184 3.32579C16.5217 3.06099 16.327 2.79618 16.1557 2.5293L5.63825 8.48423L0.561448 5.61518C0.444929 5.92477 0.373703 6.24912 0.349915 6.57848L5.68691 9.62476L16.7184 3.32579Z" fill="#2F9A41"/>
<path d="M5.63826 10.7257L0.184922 7.63972C0.144567 7.82953 0.128225 8.02353 0.136269 8.2173C0.136269 10.5767 1.08712 12.8395 2.77965 14.5079C4.47218 16.1762 6.76775 17.1135 9.16135 17.1135C11.5549 17.1135 13.8505 16.1762 15.543 14.5079C17.2356 12.8395 18.1864 10.5767 18.1864 8.2173C18.1965 6.80961 17.8613 5.42037 17.2091 4.16797L5.63826 10.7257Z" fill="#2F9A41"/>
<path d="M15.4217 1.78253C15.1647 1.54339 14.8949 1.31787 14.6136 1.10693L5.63826 6.24274L1.31028 3.80725C1.16433 4.07207 1.01625 4.36191 0.84491 4.67469L5.58961 7.375L15.4217 1.78253Z" fill="#2F9A41"/>
<path d="M13.7336 0.529592C13.3939 0.329149 13.0405 0.152193 12.676 0L5.63824 3.99487L2.48427 2.24138C2.27274 2.44988 2.0612 2.72302 1.84967 2.98781L5.61497 5.11035L13.7336 0.529592Z" fill="#2F9A41"/>
</svg>
