<svg width="97" height="52" viewBox="0 0 97 52" fill="none" xmlns="http://www.w3.org/2000/svg">
<path d="M4.03409 45.1259H0.16748V42.7761H10.7162V45.1259H6.84958V51.6016H4.03409V45.1259Z" fill="#222220"/>
<path d="M21.5277 42.7761V51.5648H18.806V46.4581L14.1136 51.5833H11.711V42.7946H14.4326V47.9198L19.1251 42.7946L21.5277 42.7761Z" fill="#222220"/>
<path d="M26.2155 51.5833H23.4938V42.7949H26.2155V46.0327H30.5889V42.7949H33.3105V51.5833H30.5889V48.3084H26.2155V51.5833Z" fill="#222220"/>
<path d="M35.2767 51.5831V42.7949H37.9983V45.1446H40.8138C41.4862 45.1104 42.1594 45.1918 42.8034 45.3851C43.4217 45.5909 43.9554 45.989 44.3244 46.5195C44.6933 47.05 44.8776 47.6842 44.8494 48.3268C44.873 49.0238 44.6527 49.7075 44.2255 50.2634C43.7983 50.8192 43.1902 51.2133 42.5031 51.3796C41.9462 51.5257 41.3712 51.5942 40.795 51.5831H35.2767ZM37.9983 49.4554H40.3446C40.7065 49.4875 41.0712 49.4434 41.4145 49.3259C41.6222 49.2416 41.7994 49.0978 41.9232 48.9131C42.0471 48.7283 42.1118 48.5112 42.1089 48.2898C42.1129 48.0747 42.0454 47.8642 41.9166 47.6905C41.7878 47.5167 41.6048 47.3893 41.3957 47.3278C41.0541 47.2331 40.6988 47.1955 40.3446 47.2167H37.9983V49.4554Z" fill="#222220"/>
<path d="M48.8004 51.5831H46.0788V42.7949H48.8004V46.1067H49.5512L52.836 42.7949H56.2521L51.8975 47.0132L56.421 51.6016H52.7984L49.5512 48.2713H48.8004V51.5831Z" fill="#222220"/>
<path d="M67.9223 47.1797C67.9223 49.8069 65.7262 51.842 62.0849 51.842C58.4435 51.842 56.2286 49.8069 56.2286 47.1797C56.2286 44.5526 58.4247 42.5544 62.1083 42.5544C65.7919 42.5544 67.9223 44.5711 67.9223 47.1797ZM65.0693 47.1797C65.0693 45.7366 63.8868 44.6821 62.0849 44.6821C60.283 44.6821 59.1004 45.7366 59.1004 47.1797C59.1004 48.6228 60.2642 49.6959 62.0849 49.6959C63.9056 49.6959 65.0693 48.6413 65.0693 47.1797Z" fill="#222220"/>
<path d="M82.3752 47.1797C82.3752 49.6959 80.3293 51.0096 76.8944 51.0836V51.9717H74.1727V51.0836C70.7566 51.0096 68.7107 49.6959 68.7107 47.1797C68.7107 44.6634 70.7566 43.2387 74.1727 43.1647V42.2766H76.8944V43.1647C80.3293 43.2387 82.3752 44.6634 82.3752 47.1797ZM74.1727 45.0704C72.2957 45.1444 71.4698 45.9955 71.4698 47.1797C71.4698 48.3638 72.2957 49.1224 74.1727 49.1964V45.0704ZM79.5972 47.1797C79.5972 45.9955 78.7901 45.1444 76.8944 45.0704V49.1964C78.7901 49.1224 79.5972 48.3638 79.5972 47.1797Z" fill="#222220"/>
<path d="M96.8327 47.1797C96.8327 49.6959 94.7868 51.0096 91.3519 51.0836V51.9717H88.6303V51.0836C85.2141 51.0096 83.1682 49.6959 83.1682 47.1797C83.1682 44.6634 85.2141 43.2387 88.6303 43.1647V42.2766H91.3519V43.1647C94.7821 43.2387 96.8327 44.6634 96.8327 47.1797ZM88.6303 45.0704C86.7533 45.1444 85.9274 45.9955 85.9274 47.1797C85.9274 48.3638 86.7533 49.1224 88.6303 49.1964V45.0704ZM94.0501 47.1797C94.0501 45.9955 93.243 45.1444 91.3472 45.0704V49.1964C93.243 49.1224 94.0501 48.3638 94.0501 47.1797Z" fill="#222220"/>
<path d="M67.4484 15.6248L67.9176 14.0707L66.2893 14.1216C65.538 14.0924 64.8119 13.8463 64.2012 13.4139C64.2763 13.4139 64.3466 13.4139 64.4217 13.4139C64.9104 13.4126 65.3889 13.2768 65.8035 13.0218C66.218 12.7669 66.5521 12.4028 66.768 11.9707L67.4672 10.4397C66.904 10.4444 66.3413 10.4119 65.7825 10.3426C65.25 10.2181 64.7707 9.93166 64.4123 9.52385C64.1716 9.27042 63.881 9.06796 63.5583 8.92879C63.2356 8.78963 62.8876 8.71668 62.5353 8.71439C62.2565 8.71562 61.9795 8.7593 61.7142 8.8439C61.7538 8.71964 61.7852 8.59293 61.808 8.46461C61.9181 7.56295 61.6617 6.65498 61.0947 5.93911L59.87 4.44508L59.1098 6.20276C58.99 6.45217 58.8054 6.66597 58.5749 6.82257C58.445 6.19707 58.1318 5.6229 57.6739 5.17128C57.2938 4.78724 56.8389 4.48278 56.3366 4.27614C55.8343 4.06949 55.2948 3.96491 54.7505 3.96865C54.5589 3.9677 54.3674 3.98162 54.178 4.01028L52.7233 4.29244C52.8516 3.80272 53.054 3.3349 53.324 2.9048L54.1311 1.63742L52.0758 1.86869L51.4235 0.481049L50.1566 1.12399L48.9694 0L47.8009 1.14249L46.534 0.499551L45.8817 1.85019L43.8076 1.63742L44.6241 2.89092C44.8934 3.32081 45.0944 3.78877 45.2201 4.27856L43.8123 4.00566H43.7654C43.5697 3.97644 43.372 3.96252 43.1741 3.96403C42.6298 3.96002 42.0902 4.06448 41.5879 4.27114C41.0855 4.4778 40.6307 4.7824 40.2507 5.16665C39.7914 5.61785 39.4765 6.19201 39.3451 6.81795C39.1175 6.66521 38.9347 6.45627 38.8148 6.21201L38.0781 4.4497L36.8346 5.95298C36.2778 6.66989 36.0269 7.57272 36.1354 8.46924C36.1586 8.59749 36.1899 8.72417 36.2292 8.84853C35.964 8.76342 35.687 8.71972 35.4081 8.71901C35.0559 8.72157 34.7079 8.79465 34.3853 8.93379C34.0626 9.07294 33.772 9.27526 33.5311 9.52847C33.1747 9.93173 32.7013 10.2175 32.1749 10.3472C31.6128 10.4292 31.0443 10.4617 30.4763 10.4443L31.1754 11.9753C31.3918 12.4071 31.7259 12.7709 32.1404 13.0258C32.5548 13.2807 33.0332 13.4167 33.5217 13.4185C33.5968 13.4185 33.6671 13.4185 33.7422 13.4185C33.1331 13.8559 32.4069 14.1068 31.6541 14.1401L29.9976 14.0892L30.4997 15.6433C30.6799 16.2411 31.0327 16.7742 31.5152 17.1776C31.9977 17.5809 32.5889 17.8369 33.2167 17.9145C33.1514 18.3174 32.9897 18.6992 32.7449 19.0282C32.5001 19.3572 32.1792 19.6239 31.8089 19.8063L30.5748 20.3058L31.2505 21.4622C31.5236 21.8817 31.9001 22.2261 32.3449 22.4631C32.7897 22.7001 33.2882 22.822 33.7938 22.8175C34.062 22.8169 34.3293 22.789 34.5916 22.7342C34.652 23.023 34.7271 23.3086 34.8168 23.5899C35.0492 24.1971 35.0657 24.864 34.8637 25.4817L34.2537 26.7399L35.6145 27.0914C35.9213 27.168 36.2366 27.2068 36.553 27.207C36.784 27.2065 37.014 27.1786 37.2381 27.1238C37.3982 27.0885 37.5551 27.0406 37.7074 26.9804C37.8818 27.2901 38.0963 27.5762 38.3456 27.8315C39.2184 28.7149 40.4572 29.1636 42.0198 29.1636H43.1366L40.8279 30.0887L42.5829 30.9259C43.2876 31.2703 44.0096 31.579 44.7461 31.851L44.5256 32.4431L45.1309 32.716C46.1354 33.1069 47.2003 33.3259 48.2796 33.3635C48.2796 33.3635 48.7488 33.3635 49.0022 33.3635C49.2556 33.3635 49.7202 33.3635 49.7202 33.3635C50.7929 33.3255 51.8512 33.1081 52.85 32.7206L53.4554 32.4477L53.2348 31.8556C53.9798 31.5734 54.7097 31.2538 55.4215 30.8982L57.1437 30.0748L54.8397 29.1497H55.9612C57.5285 29.1497 58.7767 28.6872 59.6401 27.8176C59.8897 27.5626 60.1042 27.2765 60.2783 26.9665C60.4307 27.0262 60.5876 27.0741 60.7475 27.1099C60.966 27.1598 61.1896 27.1847 61.4138 27.1839C61.7303 27.1831 62.0454 27.1443 62.3523 27.0683L63.7225 26.7121L63.1266 25.4771C62.9134 24.8522 62.9267 24.1738 63.1641 23.5575C63.258 23.2754 63.3425 22.9886 63.4081 22.7064C63.672 22.7613 63.9409 22.7892 64.2106 22.7897C64.7204 22.7934 65.2226 22.6677 65.6688 22.4247C66.1151 22.1816 66.4904 21.8295 66.7586 21.4021L67.4249 20.2596L66.1908 19.76C65.82 19.5783 65.4988 19.3117 65.2539 18.9826C65.009 18.6535 64.8475 18.2714 64.783 17.8682C65.4095 17.7873 65.9991 17.5301 66.481 17.1272C66.9629 16.7244 67.3167 16.1931 67.5 15.5971L67.4484 15.6248Z" fill="white"/>
<path d="M48.9693 4.76C47.6602 4.76 46.6794 5.1855 46.4683 5.685L48.9693 6.65625L51.4751 5.68037C51.264 5.18087 50.2832 4.75537 48.9693 4.75537" fill="white"/>
<path d="M48.9975 30.5284H48.9694C48.1559 30.5214 47.3462 30.4189 46.5574 30.2231L45.9052 31.916C47.9103 32.4857 50.0378 32.4857 52.0429 31.916L51.4094 30.2278C50.6206 30.4233 49.8109 30.5258 48.9975 30.533" fill="white"/>
<path d="M53.7885 28.8582C53.1016 29.1964 52.3875 29.478 51.6535 29.7001L52.1649 31.0879C52.9836 30.8761 53.779 30.5847 54.5393 30.2182L53.4741 29.8713L53.7885 28.8582Z" fill="white"/>
<path d="M44.1596 28.8582L44.474 29.8713L43.4088 30.2182C44.1678 30.5841 44.9615 30.8754 45.7785 31.0879L46.2946 29.7001C45.5606 29.4779 44.8465 29.1963 44.1596 28.8582Z" fill="white"/>
<path d="M48.9693 3.14541C49.9089 3.13579 50.8362 3.35674 51.6675 3.78836C51.7477 3.52199 51.8448 3.2609 51.9585 3.00665L51.6769 3.03903L51.3813 3.0714L51.2546 2.80775L50.8792 2.02604L50.1941 2.37758L49.9266 2.51172L49.7155 2.31282L48.9693 1.56812L48.2279 2.31282L48.0168 2.52097L47.7493 2.38683L47.0595 2.03529L46.6888 2.817L46.5621 3.08065L46.2665 3.04828L45.9849 3.0159C46.0981 3.27033 46.1953 3.5314 46.2759 3.79761C47.1051 3.36389 48.0306 3.13979 48.9693 3.14541Z" fill="white"/>
<path d="M64.0322 12.1977C64.1574 12.2408 64.2891 12.2627 64.4217 12.2624C64.685 12.2601 64.9429 12.1881 65.1683 12.0538C65.3936 11.9195 65.5783 11.728 65.7028 11.4993C64.8795 11.3658 64.1284 10.9556 63.5771 10.3383C63.4464 10.1943 63.2867 10.0787 63.1081 9.99908C62.9295 9.91943 62.736 9.87742 62.54 9.87573C62.2334 9.88139 61.9344 9.97108 61.6766 10.1348C63.0046 10.8332 63.2767 11.9525 64.0228 12.2023" fill="white"/>
<path d="M33.5264 12.2624C33.6575 12.2627 33.7876 12.2408 33.9112 12.1977C34.6714 11.9479 34.9435 10.8101 36.2574 10.1301C35.9996 9.96644 35.7006 9.87675 35.394 9.87109C35.1972 9.87214 35.0028 9.91384 34.8234 9.99351C34.644 10.0732 34.4835 10.189 34.3523 10.3336C33.8024 10.9503 33.053 11.3605 32.2313 11.4946C32.3558 11.7234 32.5404 11.9149 32.7658 12.0492C32.9911 12.1834 33.249 12.2555 33.5123 12.2578" fill="white"/>
<path d="M64.3936 16.7489H64.4546C65.8623 16.7489 66.3316 15.2779 66.3316 15.2779H66.3034C65.5699 15.2535 64.8505 15.0715 64.1957 14.7448C63.5408 14.418 62.9662 13.9544 62.5119 13.3861C61.5499 12.1788 60.7569 11.1196 59.199 10.7033L59.0441 10.6755L59.0113 10.5229C58.969 10.287 59.1333 10.0604 59.4805 9.82907C61.6344 8.44142 60.1703 6.66984 60.1703 6.66984C60.1703 6.66984 59.5556 8.08525 58.1807 8.08525H58.0775C57.92 8.08238 57.7631 8.06691 57.6082 8.039L57.3548 7.99274C57.4582 7.63879 57.4612 7.26371 57.3636 6.90819C57.266 6.55266 57.0714 6.23028 56.8011 5.97601C56.531 5.70303 56.2075 5.48687 55.8502 5.34059C55.4929 5.19431 55.1092 5.12094 54.7223 5.12492C54.584 5.12329 54.4458 5.13412 54.3094 5.15729C54.7786 5.76786 55.1306 6.78548 54.5816 7.41455C54.1123 7.95574 52.9486 7.97887 52.9486 8.80221C52.9486 9.1445 53.2724 9.53767 53.8495 9.89383C55.5905 10.9762 57.3173 12.4101 58.0399 14.3297C58.9362 16.7257 57.9273 18.3169 56.482 19.2328C56.7955 19.4933 57.1815 19.6546 57.5895 19.6953C57.7255 19.6953 57.8522 19.6953 57.9742 19.6953C58.7291 19.7257 59.4716 19.4986 60.0765 19.0524C59.956 19.685 59.6659 20.2743 59.2365 20.7592C58.883 21.1642 58.4409 21.485 57.9435 21.6973C57.446 21.9096 56.9063 22.0079 56.3647 21.985C56.3715 22.2057 56.4271 22.4222 56.5276 22.6196C56.6281 22.8169 56.7711 22.9902 56.9466 23.1275C57.3206 23.375 57.748 23.5333 58.1948 23.59C58.1948 23.59 56.5618 23.9184 56.3788 26.2959C56.3832 26.9005 56.2349 27.4966 55.9471 28.0305H55.9752C59.7668 28.0305 59.6682 24.825 59.6682 24.825C59.7665 25.1196 59.9397 25.3844 60.1714 25.5941C60.4031 25.8039 60.6854 25.9515 60.9915 26.023C61.1204 26.0548 61.2528 26.0703 61.3857 26.0693C61.6008 26.0679 61.815 26.0415 62.0239 25.9907C61.6812 25.0964 61.6812 24.1096 62.0239 23.2153C62.2907 22.4733 62.4195 21.6898 62.404 20.9026C62.6175 21.1603 62.8901 21.3643 63.1993 21.4978C63.5085 21.6313 63.8455 21.6905 64.1824 21.6704C64.4818 21.6757 64.7776 21.6064 65.0426 21.469C65.3076 21.3315 65.533 21.1303 65.6981 20.8841C63.1688 19.848 63.4222 16.513 63.4222 16.513C63.713 16.6883 64.048 16.7797 64.3889 16.7766L64.3936 16.7489ZM63.6287 20.2643C62.601 19.7647 61.9488 18.4372 61.7939 17.9515C61.6391 20.5603 60.3252 22.3874 58.8236 24.1451C58.3584 24.6729 57.9972 25.2815 57.7584 25.9398C57.8832 25.276 58.1698 24.6522 58.5936 24.122C60.0014 22.4383 61.3669 20.3429 61.4655 17.9237C61.5448 16.4537 61.1754 14.994 60.4049 13.733C60.6452 14.4164 60.6809 15.1536 60.5078 15.8564C60.3348 16.5593 59.9602 17.1983 59.4289 17.6971C59.4289 17.6971 62.0332 14.6257 58.3919 11.4711C56.9372 10.2731 55.3417 9.53304 54.5206 9.00573C57.4815 9.95859 58.9315 8.9086 58.9315 8.9086C58.5215 9.22409 58.0471 9.44824 57.5408 9.56563C57.0345 9.68301 56.5084 9.69083 55.9987 9.58855C56.2052 9.68568 56.421 9.79207 56.651 9.91233C59.1474 11.2491 61.3951 13.4509 61.7752 16.4991V16.476C62.357 19.4687 63.6522 20.2365 63.6522 20.2365" fill="white"/>
<path d="M39.7533 23.5622C40.1945 23.5125 40.6183 23.3638 40.9921 23.1274C41.161 22.9876 41.2974 22.8137 41.3921 22.6173C41.4869 22.421 41.5377 22.2069 41.5411 21.9896C40.9989 22.0126 40.4584 21.9142 39.9603 21.702C39.4621 21.4897 39.0191 21.1689 38.6647 20.7638C38.2379 20.2778 37.9496 19.6888 37.8294 19.057C38.4332 19.5054 39.1764 19.7327 39.9316 19.7C40.0583 19.7 40.185 19.7 40.3211 19.7C40.7306 19.6598 41.1183 19.4986 41.4332 19.2374C39.9879 18.3123 38.9744 16.7351 39.8706 14.3344C40.5886 12.4149 42.3201 10.9764 44.061 9.89864C44.6382 9.54248 44.962 9.1447 44.962 8.80704C44.962 8.00221 43.8029 7.97908 43.329 7.4194C42.78 6.79034 43.1225 5.77737 43.5965 5.16219C43.4601 5.13897 43.3219 5.12813 43.1835 5.12981C42.7967 5.12583 42.413 5.1992 42.0557 5.34548C41.6984 5.49176 41.3749 5.70792 41.1047 5.98089C40.834 6.23486 40.6392 6.55723 40.5415 6.91284C40.4439 7.26846 40.4472 7.64368 40.551 7.99759L40.2976 8.04847C40.1427 8.07593 39.9858 8.09139 39.8284 8.09472H39.7298C38.3503 8.09472 37.7402 6.67933 37.7402 6.67933C37.7402 6.67933 36.2996 8.44163 38.4488 9.82926C38.8195 10.0652 38.9837 10.2918 38.918 10.5231L38.8852 10.6757L38.7303 10.7035C37.1724 11.1198 36.3841 12.179 35.4175 13.3862C34.9645 13.9492 34.3931 14.4087 33.7426 14.7329C33.092 15.0571 32.3779 15.2384 31.6494 15.2642H31.6071C31.6071 15.2642 32.0764 16.7351 33.4841 16.7351H33.5498C33.8907 16.7381 34.2257 16.6468 34.5165 16.4714C34.5165 16.4714 34.7652 19.8064 32.2359 20.8425C32.4013 21.0884 32.6268 21.2893 32.8917 21.4267C33.1566 21.5642 33.4523 21.6336 33.7516 21.6288C34.0886 21.6488 34.4255 21.5897 34.7347 21.4562C35.0439 21.3227 35.3165 21.1187 35.5301 20.861C35.5148 21.6481 35.6436 22.4315 35.9102 23.1737C36.252 24.0681 36.252 25.0545 35.9102 25.9489C36.1175 25.9995 36.3301 26.0259 36.5436 26.0276C36.6765 26.0288 36.809 26.0133 36.9378 25.9813C37.2439 25.9098 37.5263 25.7622 37.7579 25.5524C37.9896 25.3427 38.1629 25.0779 38.2611 24.7833C38.2611 24.7833 38.1626 27.9888 41.9541 27.9888H41.9822C41.697 27.4541 41.5503 26.8583 41.5552 26.2542C41.3769 23.8767 39.7392 23.5483 39.7392 23.5483L39.7533 23.5622ZM39.1292 24.1265C37.6088 22.3689 36.3137 20.5464 36.1307 17.9145C35.9759 18.3771 35.3236 19.7185 34.2959 20.2273C34.2959 20.2273 35.5864 19.4594 36.1729 16.4668V16.4899C36.5577 13.4417 38.8007 11.24 41.3018 9.90327C41.5318 9.77838 41.7476 9.67662 41.9541 9.57949C41.4452 9.68107 40.9199 9.6729 40.4145 9.55553C39.9091 9.43817 39.4354 9.21438 39.026 8.89955C39.026 8.89955 40.4713 9.94952 43.4369 8.99668C42.6251 9.52861 41.0297 10.2687 39.5844 11.4667C35.943 14.6166 38.5473 17.6925 38.5473 17.6925C38.016 17.1937 37.6415 16.5548 37.4684 15.8519C37.2953 15.149 37.3311 14.4119 37.5713 13.7285C36.7995 14.989 36.43 16.4491 36.5108 17.9192C36.6093 20.3429 37.9608 22.4336 39.3779 24.1173C39.8034 24.647 40.0917 25.2709 40.2179 25.9351C39.9764 25.277 39.6137 24.6686 39.148 24.1404" fill="white"/>
<path d="M46.1539 11.846C46.2149 11.9108 46.2759 11.9848 46.3369 12.0542L46.3791 12.105L46.5433 12.327L46.5809 12.3779C46.6419 12.4704 46.7029 12.5722 46.7639 12.6693C46.9731 13.0821 47.2852 13.4357 47.671 13.697C48.0567 13.9583 48.5035 14.1188 48.9694 14.1633C49.4339 14.1185 49.8794 13.9584 50.2643 13.6979C50.6491 13.4375 50.9608 13.0852 51.1701 12.674C51.2311 12.5722 51.2921 12.4704 51.3578 12.3779L51.386 12.3363C51.4423 12.2577 51.4986 12.179 51.5549 12.105L51.5925 12.0588C51.6535 11.9848 51.7145 11.9108 51.7802 11.846L51.813 11.8183C52.0983 11.5229 52.4602 11.3101 52.8594 11.2031L52.667 11.0921L51.8975 10.6295L51.1091 10.167L48.9694 11.3326L46.8577 10.1994L46.0694 10.6619L45.2998 11.1244L45.1028 11.2355C45.4991 11.33 45.8622 11.5281 46.1539 11.809L46.1867 11.8414L46.1539 11.846ZM48.1341 11.7489H49.9079V12.3548C49.8266 12.2774 49.7288 12.2189 49.6216 12.1837C49.5144 12.1485 49.4006 12.1374 49.2885 12.1513V13.0209C49.2929 13.2364 49.3509 13.4477 49.4574 13.636H48.5752C48.6826 13.448 48.7407 13.2366 48.7441 13.0209V12.1559C48.632 12.142 48.5182 12.1531 48.411 12.1883C48.3038 12.2235 48.2059 12.282 48.1247 12.3594L48.1341 11.7489Z" fill="white"/>
<path d="M48.791 10.5833V7.04491L46.5058 6.28174L47.0924 9.7137L48.791 10.5833ZM48.3218 7.91446V8.48337L48.2092 8.4325C48.037 8.37529 47.8776 8.28577 47.7399 8.16885C47.6174 8.0925 47.5123 7.99176 47.4315 7.87309C47.3507 7.75442 47.2959 7.62042 47.2707 7.47969L48.3218 7.91446Z" fill="white"/>
<path d="M50.8464 9.71347L51.447 6.28613L49.1617 7.0493V10.5876L50.8464 9.71347ZM49.6545 7.91886L50.6915 7.48871C50.6665 7.62954 50.6119 7.76364 50.531 7.88235C50.4502 8.00106 50.345 8.10173 50.2222 8.17787C50.0846 8.29479 49.9252 8.38431 49.753 8.44151L49.6451 8.49239L49.6545 7.91886Z" fill="white"/>
<path d="M45.5579 18.784C45.761 18.849 45.9732 18.8818 46.1867 18.8811V18.8163C46.1999 18.7753 46.2108 18.7336 46.2196 18.6915C46.2533 18.5067 46.2721 18.3196 46.2759 18.1319C46.1479 18.0568 46.0439 17.9478 45.9756 17.8174C45.9471 17.74 45.8946 17.6733 45.8255 17.6268C45.7565 17.5804 45.6744 17.5564 45.5908 17.5585C45.383 17.5756 45.1829 17.644 45.0089 17.7573C44.9802 17.9602 45.0152 18.1668 45.1091 18.3495C45.2031 18.5322 45.3515 18.6822 45.5345 18.7794" fill="white"/>
<path d="M50.6117 16.9062C50.1894 17.3688 49.3541 18.1551 49.3166 18.1921L49.265 18.243L46.6231 18.2014C46.6209 18.4152 46.5925 18.628 46.5387 18.8351V18.9183L49.6592 19.4734C49.9829 19.2514 50.8792 18.6038 51.2264 18.354C51.0123 18.0303 50.9333 17.6376 51.0059 17.2578C50.8555 17.165 50.7223 17.0477 50.6117 16.9109" fill="white"/>
<path d="M50.9683 13.7979C50.7177 14.0736 50.4111 14.2944 50.0683 14.4458C49.7256 14.5972 49.3543 14.6759 48.9787 14.6767C48.8834 14.6816 48.7878 14.6816 48.6925 14.6767C48.5978 14.6691 48.5037 14.6552 48.4109 14.6351C48.3505 14.8591 48.367 15.0966 48.4579 15.3104C48.5248 15.439 48.6176 15.5529 48.7305 15.6451C48.8434 15.7373 48.9742 15.806 49.1148 15.847L49.2227 15.8886V16.0043C49.2357 16.2398 49.3268 16.4647 49.4819 16.6443C49.637 16.824 49.8476 16.9485 50.0815 16.9988C50.2175 16.86 50.3396 16.7351 50.4334 16.6334C50.3498 16.4719 50.3206 16.2884 50.3502 16.1096C50.3797 15.9307 50.4664 15.7658 50.5976 15.6388C50.5597 15.911 50.6045 16.1882 50.7264 16.4352C50.8484 16.6823 51.042 16.8881 51.2827 17.0265L51.4141 17.0867L51.3766 17.2254C51.291 17.4954 51.3152 17.7876 51.4438 18.0404C51.5725 18.2932 51.7957 18.4869 52.0664 18.5807L52.24 18.6455L52.1649 18.812C52.052 19.0626 52.0411 19.3465 52.1346 19.6048C52.228 19.8631 52.4187 20.0761 52.667 20.1997H54.6003V18.6733C54.3351 18.6392 54.0882 18.5211 53.8969 18.3367C53.7056 18.1523 53.5803 17.9117 53.5398 17.651C53.2469 17.6135 52.9806 17.4639 52.7984 17.2347C52.6801 17.0884 52.6096 16.9101 52.5962 16.7235C52.5828 16.5368 52.6271 16.3506 52.7233 16.1893C52.7277 16.4987 52.8423 16.7967 53.0471 17.0312C53.2158 17.2044 53.4426 17.3112 53.6853 17.3318H53.8261V17.4752C53.8397 17.6821 53.9235 17.8784 54.0639 18.0328C54.2043 18.1871 54.3932 18.2905 54.6003 18.3263V15.2133C54.6187 14.7268 54.7252 14.2474 54.9147 13.7979H50.9683Z" fill="white"/>
<path d="M45.7222 15.2225L45.6705 17.2069L45.9005 17.2393L46.4589 15.3382L46.1773 14.7507L45.7222 15.2225Z" fill="white"/>
<path d="M51.8881 24.3207H51.9444C52.2916 24.4178 52.3808 25.6527 52.9908 25.7637C53.0454 25.7693 53.1005 25.7693 53.1551 25.7637C53.2331 25.7641 53.3101 25.7453 53.3789 25.7089C53.4477 25.6726 53.5063 25.6199 53.5492 25.5556C53.5492 25.5556 53.2442 25.0931 53.0143 24.7601C52.7093 24.3392 52.4746 23.835 51.9022 23.835H51.8599C51.7525 23.8387 51.6484 23.8724 51.5596 23.9321C51.3698 23.8097 51.1482 23.7438 50.9214 23.7425C50.6606 23.7739 50.403 23.8281 50.1519 23.9044L48.8849 23.7795C48.7138 23.7394 48.5656 23.6348 48.472 23.4881V23.4557C48.472 23.4234 48.472 23.3864 48.472 23.354C48.4801 23.0194 48.3726 22.692 48.1671 22.4256C47.9616 22.1592 47.6703 21.9695 47.3411 21.8878C47.3411 21.8878 47.3739 21.6935 47.2988 21.6195L47.0173 21.9525L46.0788 21.49L46.7357 22.2439L46.1539 22.8914C46.1267 22.9173 46.1088 22.9511 46.1029 22.9878C46.097 23.0245 46.1033 23.0621 46.121 23.095L46.3603 23.3031L46.6653 23.1227C46.6899 23.116 46.7159 23.116 46.7404 23.1227C46.8249 23.1227 46.9516 23.1227 47.0642 23.1227C47.1768 23.1227 47.2941 23.095 47.3082 22.984C47.2707 23.3632 46.9141 24.02 47.1487 24.538L47.3223 24.9312L46.2008 24.7739L45.6846 25.6527C45.6022 25.7647 45.5551 25.8982 45.5493 26.0364C45.5434 26.1746 45.5791 26.3114 45.6518 26.4298L45.8489 26.6703C45.9854 26.5345 46.0994 26.3785 46.1867 26.2078L46.0976 26.1106C46.0651 26.08 46.0448 26.0388 46.0405 25.9947C46.0362 25.9505 46.0481 25.9063 46.0741 25.8701L46.4026 25.3336L47.7259 25.6389L47.7962 25.5232C47.8323 25.4613 47.8853 25.4107 47.9492 25.3771C48.0131 25.3436 48.0853 25.3285 48.1576 25.3336C48.2169 25.3292 48.2765 25.3292 48.3359 25.3336C48.6835 25.4029 49.037 25.44 49.3917 25.4446C49.5913 25.4642 49.7928 25.4444 49.9845 25.3865C50.1763 25.3285 50.3544 25.2335 50.5085 25.107C50.9777 25.81 51.9585 25.921 51.8834 26.2772L51.6253 27.4751C51.7942 27.4751 51.9585 27.4751 52.0946 27.4381L52.3386 26.1893C52.3667 26.0551 52.3902 25.8701 52.3902 25.8701C52.2071 25.7175 52.0489 25.5381 51.9209 25.3382C51.7473 25.0145 51.8412 24.8433 51.6816 24.4132C51.6972 24.3846 51.7202 24.3606 51.7482 24.3436C51.7762 24.3265 51.8083 24.317 51.8412 24.316L51.8881 24.3207ZM46.8859 22.5584C46.8707 22.5579 46.8557 22.5542 46.842 22.5478C46.8282 22.5414 46.8159 22.5323 46.8058 22.5211C46.7958 22.5098 46.7881 22.4967 46.7833 22.4824C46.7785 22.4682 46.7767 22.4531 46.778 22.4382C46.7786 22.4232 46.7822 22.4085 46.7887 22.3949C46.7952 22.3813 46.8045 22.3692 46.8159 22.3593C46.8273 22.3493 46.8406 22.3418 46.8551 22.337C46.8695 22.3323 46.8848 22.3305 46.9 22.3318C46.9305 22.3318 46.9597 22.3437 46.9813 22.365C47.0028 22.3862 47.0149 22.4151 47.0149 22.4451C47.0149 22.4752 47.0028 22.504 46.9813 22.5252C46.9597 22.5465 46.9305 22.5584 46.9 22.5584" fill="white"/>
<path d="M45.1262 25.4402C45.1262 25.4402 45.5673 25.2598 45.5955 25.135L45.5392 24.9916C45.5147 24.9519 45.5056 24.9048 45.5133 24.859C45.5211 24.8132 45.5452 24.7716 45.5814 24.7419L46.0506 24.4182L46.8437 24.5661C46.7544 24.4473 46.7081 24.3024 46.7123 24.1546L45.9568 23.9973L45.2435 24.4228C45.1195 24.5134 45.0299 24.6424 44.9891 24.7891C44.9482 24.9358 44.9585 25.0918 45.0183 25.2321L45.1262 25.4402Z" fill="white"/>
<path d="M50.7244 27.4893H51.1936C51.1936 27.4893 51.6018 26.3146 51.6253 26.2776C51.322 26.1383 51.026 25.9839 50.7384 25.8152C50.8604 25.9955 51.1514 26.1944 51.0951 26.3516L50.7244 27.4893Z" fill="white"/>
<path d="M54.6003 20.5278H43.3384V24.6909C43.3384 26.3978 44.5913 27.4663 46.4401 27.4663C47.9839 27.4663 48.3922 27.5265 48.9694 28.0862C49.1491 27.8964 49.3673 27.746 49.6098 27.6448C49.8524 27.5436 50.1138 27.4938 50.3771 27.4987V27.434L50.7337 26.3516L50.1331 25.6762C49.8915 25.748 49.639 25.7777 49.387 25.7641C49.0119 25.7595 48.6381 25.7208 48.2702 25.6485C48.2312 25.6441 48.1919 25.6441 48.1529 25.6485C48.1013 25.6485 48.1013 25.6485 48.0872 25.6762L48.0168 25.7918L47.8901 26L47.6461 25.9445L46.5668 25.6947L46.4166 25.9352V25.963L46.548 26.1064L46.4917 26.2914C46.3933 26.518 46.2515 26.7237 46.0741 26.8974L45.8019 27.1842L45.5579 26.8789L45.3749 26.6522C45.2784 26.5273 45.2156 26.3803 45.1926 26.2249C45.1697 26.0695 45.1872 25.911 45.2435 25.7641L44.9385 25.889L44.8024 25.5976L44.7086 25.3894C44.6151 25.1772 44.5982 24.9399 44.6605 24.7169C44.7228 24.4939 44.8607 24.2987 45.0511 24.1636L45.9192 23.701L46.7451 23.8629C46.7451 23.7843 46.7967 23.5068 46.8202 23.4328H46.7733L46.304 23.6085L45.8348 23.294C45.8118 23.2716 45.7936 23.245 45.7811 23.2156C45.7686 23.1862 45.7622 23.1547 45.7622 23.1228C45.7622 23.091 45.7686 23.0595 45.7811 23.0301C45.7936 23.0007 45.8118 22.9741 45.8348 22.9517L46.2806 22.2856L45.1497 20.8979L46.8859 21.601L47.0032 21.4622L47.2378 21.1847L47.5053 21.4345C47.5751 21.5012 47.624 21.5863 47.6461 21.6796C48.1153 21.8647 48.9787 22.4059 49.0538 23.2847L48.7864 23.3911C48.8192 23.435 48.8628 23.47 48.9131 23.4929L50.1519 23.6132L50.2645 23.5808C50.4748 23.5031 50.6969 23.4609 50.9214 23.4559C51.1457 23.4574 51.3669 23.5079 51.569 23.6039C51.6581 23.5723 51.7513 23.5536 51.8459 23.5484H51.9069C52.1766 23.572 52.4352 23.6659 52.6562 23.8203C52.8771 23.9747 53.0525 24.1842 53.1644 24.4273L53.3005 24.6216C53.5305 24.9453 53.8355 25.4125 53.8449 25.4357L53.9809 25.6438L53.812 25.8335C53.7353 25.9323 53.6366 26.0124 53.5235 26.0678C53.4104 26.1231 53.286 26.1521 53.1598 26.1527C53.0848 26.1596 53.0094 26.1596 52.9345 26.1527C52.8668 26.1396 52.8008 26.1194 52.7374 26.0925C52.7374 26.1573 52.7374 26.2359 52.6999 26.3007L52.484 27.4155C53.1088 27.2906 53.6669 26.9477 54.0557 26.4497C54.4445 25.9517 54.6379 25.3321 54.6003 24.7048V20.5278Z" fill="#FCE527"/>
<path d="M43.3384 20.1953H52.0946C51.9193 20.0139 51.797 19.7892 51.7409 19.5449C51.6847 19.3005 51.6966 19.0458 51.7755 18.8076C51.6568 18.7516 51.5463 18.6801 51.447 18.5949C51.1045 18.8446 50.0393 19.594 49.7859 19.7836L49.7296 19.8206L46.2946 19.2101H46.2243C46.1133 19.2164 46.0021 19.2164 45.8911 19.2101C45.8751 19.2831 45.8343 19.3486 45.7754 19.3957C45.7165 19.4428 45.6431 19.4687 45.5673 19.4691H45.511C45.4223 19.4543 45.3431 19.4058 45.2905 19.334C45.2378 19.2621 45.2159 19.1728 45.2294 19.0852V19.0112C45.013 18.8562 44.8471 18.6424 44.7521 18.3959C44.6571 18.1495 44.6371 17.881 44.6945 17.6235L44.7461 17.5772L44.7977 17.5402C44.7977 17.5402 44.8634 17.494 44.9526 17.4477L44.7039 17.4107C44.6594 17.4028 44.6198 17.378 44.5935 17.3418C44.5672 17.3055 44.5563 17.2605 44.5631 17.2164C44.5665 17.1944 44.5744 17.1733 44.5862 17.1544C44.598 17.1354 44.6136 17.119 44.6319 17.106C44.6503 17.0931 44.6711 17.0839 44.6931 17.079C44.7152 17.0742 44.738 17.0737 44.7602 17.0777L45.3561 17.1702L45.4125 15.1072L46.2993 14.182L46.853 15.3292L46.2712 17.3136L46.7967 17.3968C46.8413 17.4047 46.8809 17.4295 46.9072 17.4658C46.9335 17.5021 46.9443 17.547 46.9375 17.5911C46.9308 17.6303 46.9101 17.6658 46.8791 17.6913C46.8481 17.7167 46.8089 17.7304 46.7686 17.7299H46.7404L46.3134 17.6605V17.6929C46.3609 17.7755 46.4329 17.8417 46.5199 17.8825L49.1383 17.9241L49.8093 17.2719C49.5587 17.1866 49.3377 17.0332 49.1717 16.8294C49.0056 16.6256 48.9014 16.3798 48.8708 16.1202C48.5446 15.9984 48.2777 15.7585 48.1247 15.4494C47.9974 15.1571 47.9759 14.8305 48.0637 14.5243C47.6505 14.3648 47.2774 14.1186 46.9704 13.8027H43.0334C43.2181 14.2518 43.3213 14.7293 43.3384 15.2135V20.1953Z" fill="#FCE527"/>
<path d="M46.9516 22.3412C46.9364 22.3399 46.9212 22.3417 46.9067 22.3465C46.8922 22.3512 46.8789 22.3588 46.8675 22.3687C46.8561 22.3787 46.8469 22.3909 46.8404 22.4045C46.8338 22.418 46.8302 22.4328 46.8296 22.4478C46.8283 22.4628 46.8301 22.4779 46.8349 22.4922C46.8397 22.5065 46.8474 22.5196 46.8575 22.5309C46.8675 22.5422 46.8798 22.5513 46.8936 22.5577C46.9074 22.5642 46.9223 22.5678 46.9375 22.5684C46.968 22.5684 46.9973 22.5564 47.0188 22.5351C47.0404 22.5138 47.0525 22.4849 47.0525 22.4548C47.0525 22.4247 47.0404 22.3958 47.0188 22.3745C46.9973 22.3532 46.968 22.3412 46.9375 22.3412" fill="#222220"/>
<path d="M54.6003 29.9131L53.9528 29.6679L54.1311 29.0065L54.3282 28.2849C53.443 28.7319 52.5158 29.0928 51.5596 29.3626C51.0904 29.4921 50.7525 29.5523 50.7525 29.5523V30.0426C50.1768 30.1348 49.5948 30.1842 49.0116 30.1906H48.9694C48.3861 30.1843 47.8042 30.1349 47.2284 30.0426V29.5523C47.2284 29.5523 46.8812 29.4921 46.4213 29.3626C45.4651 29.093 44.5379 28.7321 43.6528 28.2849L43.8076 29.0065L43.9906 29.6679L43.3384 29.9131L42.6157 30.1767C43.5845 30.6784 44.5956 31.0962 45.6377 31.4256L45.389 32.0916C46.5207 32.5172 47.7256 32.7214 48.9365 32.6929H48.9694C50.1803 32.7215 51.3852 32.5173 52.5169 32.0916L52.2682 31.4256C53.3106 31.0971 54.3217 30.6792 55.2901 30.1767L54.6003 29.9131ZM43.4181 30.223L44.4833 29.876L44.1689 28.8631C44.8559 29.2012 45.57 29.4828 46.304 29.7049L45.7878 31.0925C44.971 30.8798 44.1773 30.5886 43.4181 30.223ZM48.9694 32.346C47.9333 32.3355 46.903 32.1908 45.9052 31.9159L46.5386 30.2276C47.3338 30.4231 48.1498 30.524 48.9694 30.5282H49.021C49.8344 30.5208 50.644 30.4183 51.4329 30.223L52.0429 31.9159C51.0433 32.1898 50.0115 32.3329 48.974 32.3414L48.9694 32.346ZM52.1649 31.0879L51.6488 29.7003C52.3828 29.4782 53.0969 29.1966 53.7838 28.8585L53.4694 29.8714L54.5346 30.2183C53.7742 30.5846 52.9788 30.8758 52.1602 31.0879" fill="#222220"/>
<path d="M48.9693 3.55264C50.0286 3.52449 51.0683 3.83792 51.9303 4.44531C52.0646 3.75915 52.3238 3.10259 52.6952 2.50733L51.63 2.62759L51.0716 1.46202L50.0017 2.00318L48.9693 0.994873L47.937 2.00318L46.8671 1.46202L46.3134 2.62759L45.2482 2.50733C45.62 3.10241 45.8791 3.75903 46.0131 4.44531C46.8741 3.83949 47.9118 3.52617 48.9693 3.55264ZM46.2665 3.03461L46.5621 3.06699L46.6888 2.80335L47.0595 2.02168L47.7493 2.3732L48.0168 2.50733L48.2279 2.29919L48.9693 1.5684L49.7155 2.31307L49.9313 2.52121L50.1988 2.38707L50.8839 2.03556L51.2593 2.81722L51.386 3.08086L51.6816 3.04849L51.9632 3.01611C51.8495 3.27035 51.7524 3.53143 51.6722 3.79778C50.8379 3.37646 49.9139 3.15674 48.9764 3.15674C48.0389 3.15674 47.1149 3.37646 46.2805 3.79778C46.1999 3.53158 46.1028 3.27053 45.9896 3.01611L46.2665 3.03461Z" fill="#222220"/>
<path d="M64.4546 17.1975C66.1626 17.1975 66.7351 15.4861 66.7586 15.4121L66.951 14.8108H66.3128C65.6462 14.7885 64.9926 14.6229 64.3977 14.3257C63.8027 14.0285 63.2809 13.6068 62.8685 13.0901L62.7418 12.9328C61.869 11.8412 61.0431 10.8005 59.5603 10.3241C59.6191 10.273 59.6818 10.2266 59.748 10.1853C60.0955 9.99096 60.3966 9.72512 60.6306 9.40586C60.8646 9.0866 61.0261 8.7214 61.1041 8.33511C61.1837 7.62966 60.9817 6.92137 60.541 6.36004L60.0718 5.78186L59.7621 6.47568C59.7621 6.51731 59.2412 7.61817 58.1901 7.61817H58.1103H57.9038C57.9303 7.25717 57.8769 6.89481 57.7473 6.55617C57.6176 6.21754 57.4149 5.91073 57.153 5.65697C56.8396 5.3417 56.4648 5.09196 56.0512 4.92268C55.6376 4.7534 55.1936 4.66806 54.7458 4.67175C54.5777 4.67102 54.4098 4.6834 54.2437 4.70875L53.5258 4.84751L53.9668 5.42107C54.3141 5.88362 54.6285 6.68382 54.2578 7.10936C54.0802 7.26172 53.8769 7.38226 53.6571 7.46553C53.1879 7.68292 52.5122 7.99283 52.5122 8.76991C52.5122 9.27408 52.911 9.80138 53.629 10.2454C55.7547 11.5637 57.0639 12.9374 57.6317 14.4546C58.5092 16.7673 57.3642 18.1226 56.2521 18.821L55.7547 19.1356L56.1911 19.5287C56.5803 19.8557 57.0617 20.0575 57.5707 20.1069C57.7208 20.1069 57.8616 20.1069 57.9977 20.1069C58.4332 20.1086 58.8666 20.0463 59.2834 19.9219C59.1796 20.1009 59.0586 20.2697 58.9221 20.4261C58.61 20.7839 58.219 21.0667 57.779 21.2526C57.339 21.4386 56.8616 21.523 56.3835 21.4992H55.9658L55.933 21.9109C55.9308 22.1959 55.9924 22.478 56.1132 22.737C56.234 22.996 56.4112 23.2256 56.6322 23.4095C56.7492 23.5107 56.8804 23.5949 57.0217 23.6593C56.3283 24.3252 55.9317 25.2353 55.9189 26.1894C55.9182 26.7132 55.7979 27.2302 55.567 27.7019L55.0977 28.3958H55.933C57.3095 28.3958 58.3637 28.0242 59.0957 27.281C59.4757 26.8873 59.7584 26.4124 59.9216 25.8934C60.1928 26.1187 60.5145 26.2772 60.8601 26.3559C61.0247 26.3934 61.1932 26.4121 61.3622 26.4114C61.6151 26.4107 61.867 26.3812 62.113 26.3235L62.6433 26.1848L62.4086 25.6945C62.1147 24.9125 62.1147 24.0527 62.4086 23.2707C62.5826 22.7599 62.7037 22.233 62.77 21.6981C63.1926 21.9104 63.6612 22.0183 64.1355 22.0126C64.5164 22.0183 64.8926 21.9288 65.229 21.7524C65.5654 21.5761 65.8511 21.3187 66.0594 21.0043L66.3175 20.5417L65.8482 20.3474C64.2762 19.7045 63.929 17.9792 63.8633 17.0449C64.0179 17.0758 64.1749 17.0943 64.3326 17.1004L64.4546 17.1975ZM65.6981 20.8516C65.533 21.0979 65.3075 21.299 65.0426 21.4365C64.7776 21.5739 64.4818 21.6432 64.1824 21.6379C63.8455 21.6576 63.5086 21.5983 63.1995 21.4648C62.8904 21.3314 62.6177 21.1276 62.4039 20.8701C62.4179 21.6576 62.2875 22.441 62.0192 23.1829C61.6765 24.0771 61.6765 25.0639 62.0192 25.9581C61.8103 26.009 61.5961 26.0354 61.381 26.0368C61.2481 26.0377 61.1157 26.0222 60.9868 25.9905C60.6807 25.919 60.3984 25.7713 60.1667 25.5616C59.935 25.3519 59.7618 25.0871 59.6635 24.7925C59.6635 24.7925 59.7621 27.998 55.9705 27.998H55.9424C56.23 27.464 56.3783 26.8679 56.3741 26.2634C56.5524 23.8859 58.1854 23.5575 58.1854 23.5575C57.7445 23.5094 57.3207 23.3622 56.9466 23.1273C56.7777 22.9875 56.6413 22.8136 56.5466 22.6173C56.4518 22.4209 56.401 22.2068 56.3976 21.9895C56.9391 22.0128 57.479 21.9146 57.9765 21.7023C58.474 21.4899 58.916 21.169 59.2694 20.7637C59.6988 20.2788 59.9888 19.6895 60.1093 19.0569C59.5055 19.5053 58.7623 19.7326 58.0071 19.6999C57.8851 19.6999 57.7537 19.6999 57.6223 19.6999C57.2143 19.6591 56.8283 19.4979 56.5149 19.2373C57.9602 18.3122 58.969 16.735 58.0728 14.3343C57.3548 12.4148 55.6233 10.9763 53.8824 9.89852C53.3052 9.54236 52.9814 9.14457 52.9814 8.80691C52.9814 8.00208 54.1405 7.97895 54.6144 7.41927C55.1634 6.79021 54.8209 5.77723 54.3422 5.16204C54.4786 5.13887 54.6168 5.12804 54.7552 5.12967C55.142 5.12569 55.5257 5.19906 55.883 5.34534C56.2403 5.49162 56.5638 5.70778 56.834 5.98075C57.1043 6.23502 57.2988 6.5574 57.3964 6.91291C57.494 7.26843 57.491 7.64351 57.3877 7.99745L57.6411 8.04833C57.796 8.07605 57.9529 8.09151 58.1103 8.09459H58.2135C59.5884 8.09459 60.2032 6.6792 60.2032 6.6792C60.2032 6.6792 61.6625 8.45075 59.5134 9.83839C59.1427 10.0743 58.9784 10.3009 59.0441 10.5322L59.077 10.6848L59.2318 10.7126C60.7897 11.1289 61.5781 12.1881 62.5447 13.3954C62.9972 13.9547 63.5669 14.4112 64.2147 14.7337C64.8626 15.0562 65.5734 15.2371 66.2987 15.2641H66.3315C66.3315 15.2641 65.8623 16.735 64.4546 16.735H64.3889C64.048 16.738 63.713 16.6467 63.4222 16.4713C63.4222 16.4713 63.1735 19.8063 65.6981 20.8424" fill="#222220"/>
<path d="M61.4608 10.5277C61.9854 10.8224 62.4399 11.2246 62.7934 11.7072C63.0596 12.1149 63.4414 12.4366 63.8915 12.6323C64.0624 12.6887 64.2415 12.7168 64.4217 12.7155C64.7732 12.7146 65.1177 12.6182 65.4173 12.4371C65.7169 12.256 65.9602 11.997 66.1204 11.6887L66.3926 11.092L65.7309 11.055C65.0214 10.9281 64.3772 10.5658 63.9056 10.0281C63.7315 9.8418 63.5205 9.69272 63.2856 9.59009C63.0507 9.48745 62.797 9.43344 62.54 9.4314C62.14 9.4382 61.7499 9.55516 61.4138 9.76906L60.8085 10.19L61.4608 10.5277ZM62.5447 9.87082C62.7407 9.87251 62.9342 9.91452 63.1128 9.99417C63.2914 10.0738 63.4511 10.1894 63.5818 10.3334C64.1331 10.9507 64.8842 11.3609 65.7075 11.4944C65.5826 11.7228 65.3979 11.9141 65.1726 12.0483C64.9473 12.1825 64.6896 12.2548 64.4264 12.2576C64.2938 12.2579 64.1621 12.236 64.0369 12.1928C63.2815 11.9431 63.0093 10.8052 61.6907 10.1252C61.9484 9.96133 62.2475 9.87161 62.5541 9.8662" fill="#222220"/>
<path d="M61.7564 16.4716C61.3716 13.4235 59.1286 11.2218 56.6322 9.88506C56.4023 9.7648 56.1864 9.65842 55.9799 9.56128C56.4896 9.66325 57.0156 9.65528 57.5219 9.53791C58.0281 9.42054 58.5026 9.19656 58.9127 8.88135C58.9127 8.88135 57.4675 9.93132 54.5018 8.97848C55.323 9.50115 56.9137 10.2412 58.3731 11.4438C62.0098 14.5937 59.4101 17.6696 59.4101 17.6696C59.9415 17.1708 60.316 16.5319 60.4891 15.829C60.6621 15.1261 60.6264 14.3891 60.3862 13.7057C61.1564 14.9667 61.5258 16.4263 61.4467 17.8963C61.3481 20.32 59.9967 22.4107 58.5749 24.0943C58.1511 24.6245 57.8644 25.2484 57.7396 25.9121C57.9872 25.2623 58.3547 24.6632 58.8236 24.1452C60.344 22.3875 61.6391 20.5651 61.8174 17.9333C61.9723 18.3958 62.6245 19.7372 63.6522 20.246C63.6522 20.246 62.357 19.4782 61.7752 16.4855" fill="#222220"/>
<path d="M42.3717 27.7531C42.1441 27.2802 42.024 26.764 42.0198 26.2406C42.0071 25.2865 41.6104 24.3764 40.9171 23.7105C41.0585 23.6463 41.1897 23.5622 41.3065 23.4607C41.5277 23.277 41.7051 23.0474 41.826 22.7884C41.9468 22.5293 42.0082 22.2472 42.0057 21.962L41.9776 21.5504H41.5552C41.0779 21.5735 40.6014 21.4888 40.1623 21.3028C39.7232 21.1168 39.3329 20.8345 39.0213 20.4773C38.8799 20.3166 38.7542 20.1432 38.6459 19.9592C39.0612 20.0834 39.493 20.1458 39.9269 20.1442C40.063 20.1442 40.2038 20.1442 40.354 20.1442C40.8634 20.0932 41.3447 19.8898 41.7336 19.5614L42.17 19.1683L41.6725 18.8537C40.5604 18.1507 39.4202 16.8185 40.293 14.4873C40.8608 12.9702 42.17 11.5964 44.2957 10.2782C45.0136 9.8156 45.4078 9.30218 45.4078 8.80263C45.4078 8.02555 44.7508 7.72027 44.2675 7.49825C44.0476 7.41524 43.8443 7.29468 43.6669 7.14209C43.2915 6.71655 43.6059 5.89784 43.9531 5.4538L44.3989 4.88024L43.6762 4.74148C43.5117 4.71622 43.3454 4.70385 43.1788 4.70448C42.731 4.70052 42.2869 4.78575 41.8733 4.95504C41.4596 5.12434 41.0849 5.37421 40.7716 5.6897C40.5196 5.94334 40.3253 6.24691 40.2015 6.58026C40.0778 6.91361 40.0273 7.26911 40.0536 7.62314H39.8472H39.7721C38.6928 7.63702 38.1766 6.53616 38.1766 6.47603L37.881 5.78683L37.4118 6.36502C36.9741 6.92768 36.774 7.63537 36.8534 8.34009C36.9311 8.72648 37.0925 9.0918 37.3265 9.4111C37.5606 9.7304 37.8617 9.99617 38.2095 10.1903C38.2759 10.2313 38.3387 10.2777 38.3972 10.329C36.9144 10.7916 36.0885 11.8462 35.2157 12.9378L35.089 13.0951C34.6761 13.6124 34.1535 14.0344 33.5577 14.3316C32.9619 14.6289 32.3074 14.7941 31.64 14.8157H30.9971L31.1942 15.417C31.1942 15.491 31.7855 17.2025 33.4935 17.2025H33.578C33.7357 17.1962 33.8926 17.1776 34.0473 17.147C33.9769 18.072 33.6296 19.8066 32.0576 20.4495L31.5884 20.6438L31.8465 21.1063C32.0546 21.4223 32.3408 21.6811 32.6781 21.8582C33.0154 22.0354 33.3929 22.1253 33.7751 22.1193C34.2478 22.1241 34.7146 22.0162 35.1359 21.8048C35.2018 22.3397 35.3229 22.8667 35.4972 23.3774C35.7912 24.1594 35.7912 25.0192 35.4972 25.8012L35.2626 26.2915L35.7976 26.4302C36.0436 26.4879 36.2955 26.5174 36.5483 26.5181C36.7173 26.5189 36.8858 26.5003 37.0504 26.4626C37.3962 26.3842 37.7179 26.2257 37.9889 26.0001C38.1508 26.5187 38.4318 26.9935 38.8101 27.3877C39.5422 28.1309 40.5964 28.5024 41.9729 28.5024H42.8081L42.3717 27.7531ZM41.9682 28.0075C38.1766 28.0075 38.2752 24.8021 38.2752 24.8021C38.1769 25.0966 38.0037 25.3614 37.772 25.5712C37.5404 25.7809 37.258 25.9286 36.9519 26.0001C36.8231 26.032 36.6906 26.0476 36.5577 26.0463C36.3442 26.0448 36.1315 26.0184 35.9242 25.9677C36.2661 25.0733 36.2661 24.0868 35.9242 23.1924C35.6577 22.4503 35.5289 21.6668 35.5442 20.8797C35.3306 21.1374 35.058 21.3414 34.7488 21.4749C34.4396 21.6084 34.1027 21.6676 33.7657 21.6475C33.4664 21.6524 33.1707 21.5829 32.9058 21.4455C32.6409 21.3081 32.4154 21.1071 32.25 20.8612C34.7746 19.8251 34.5306 16.4901 34.5306 16.4901C34.2398 16.6655 33.9048 16.7568 33.5639 16.7538H33.4842C32.0764 16.7538 31.6072 15.2829 31.6072 15.2829H31.6353C32.3681 15.2581 33.0866 15.076 33.7407 14.7492C34.3947 14.4225 34.9686 13.959 35.4222 13.3911C36.3841 12.1838 37.1771 11.1246 38.7351 10.7083L38.8899 10.6806L38.9227 10.5279C38.965 10.292 38.8007 10.0654 38.4535 9.83411C36.3043 8.44647 37.7637 6.67492 37.7637 6.67492C37.7637 6.67492 38.3737 8.09031 39.7533 8.09031H39.8519C40.0093 8.08698 40.1662 8.07152 40.3211 8.04406L40.5745 7.99318C40.4707 7.63927 40.4674 7.26405 40.565 6.90843C40.6626 6.55281 40.8575 6.23044 41.1282 5.97648C41.3984 5.7035 41.7219 5.48734 42.0792 5.34106C42.4365 5.19478 42.8201 5.12142 43.207 5.12539C43.3454 5.12369 43.4836 5.13452 43.6199 5.15777C43.1507 5.76833 42.8034 6.78593 43.3525 7.41499C43.8217 7.95617 44.9855 7.9793 44.9855 8.80263C44.9855 9.14491 44.6617 9.53808 44.0845 9.89424C42.3436 10.9766 40.6167 12.4105 39.8941 14.33C38.9978 16.726 40.0114 18.3172 41.4567 19.233C41.1418 19.4942 40.7541 19.6554 40.3446 19.6956C40.2085 19.6956 40.0818 19.6956 39.9551 19.6956C39.1999 19.7283 38.4567 19.501 37.8529 19.0526C37.9731 19.6844 38.2613 20.2734 38.6881 20.7594C39.0426 21.1646 39.4855 21.4853 39.9837 21.6976C40.4819 21.9099 41.0224 22.0082 41.5646 21.9852C41.559 22.2051 41.5048 22.4213 41.406 22.6185C41.3071 22.8158 41.1659 22.9895 40.9921 23.1277C40.6167 23.3758 40.1877 23.5342 39.7392 23.5902C39.7392 23.5902 41.3722 23.9186 41.5552 26.2961C41.5503 26.9001 41.697 27.496 41.9823 28.0306L41.9682 28.0075Z" fill="#222220"/>
<path d="M33.5264 12.7112C33.7066 12.7124 33.8857 12.6843 34.0566 12.6279C34.5068 12.4325 34.8887 12.1107 35.1547 11.7028C35.5082 11.2202 35.9627 10.818 36.4873 10.5233L37.1443 10.1763L36.5343 9.7554C36.1983 9.54126 35.8081 9.42428 35.4081 9.41772C35.1511 9.41976 34.8974 9.47378 34.6625 9.57642C34.4276 9.67906 34.2166 9.82814 34.0426 10.0144C33.5709 10.5521 32.9267 10.9145 32.2172 11.0413L31.5555 11.1015L31.8277 11.6982C31.9886 12.0057 32.2321 12.2637 32.5317 12.444C32.8313 12.6243 33.1754 12.7199 33.5264 12.7205V12.7112ZM34.3663 10.3475C34.4975 10.2029 34.658 10.087 34.8375 10.0073C35.0169 9.92766 35.2113 9.88596 35.4081 9.88492C35.7147 9.89058 36.0137 9.98027 36.2715 10.144C34.9435 10.8424 34.6714 11.9618 33.9252 12.2116C33.8017 12.2548 33.6715 12.2767 33.5405 12.2764C33.2771 12.2741 33.0193 12.202 32.7939 12.0677C32.5685 11.9334 32.3839 11.7419 32.2594 11.5132C33.081 11.3787 33.8303 10.9685 34.3804 10.3521" fill="#222220"/>
<path d="M36.5061 17.9193C36.4253 16.4492 36.7948 14.9891 37.5666 13.7287C37.3264 14.4121 37.2907 15.1492 37.4637 15.852C37.6368 16.5549 38.0113 17.1939 38.5426 17.6927C38.5426 17.6927 35.9383 14.6168 39.5844 11.4668C41.0391 10.2688 42.6298 9.52873 43.451 9.00143C40.49 9.95428 39.0401 8.9043 39.0401 8.9043C39.4495 9.21913 39.9232 9.44292 40.4286 9.56029C40.934 9.67765 41.4592 9.68582 41.9682 9.58424C41.7617 9.68138 41.5458 9.78776 41.3159 9.90802C38.8148 11.2448 36.5718 13.4465 36.187 16.4947V16.4716C35.6052 19.4642 34.31 20.2321 34.31 20.2321C35.3377 19.7325 35.9852 18.405 36.1448 17.9193C36.3184 20.5512 37.6182 22.3737 39.1433 24.1313C39.6091 24.6594 39.9718 25.2679 40.2132 25.926C40.087 25.2619 39.7987 24.638 39.3732 24.1082C37.9655 22.4245 36.6047 20.3292 36.5061 17.9101" fill="#222220"/>
<path d="M48.1153 11.7534V12.3594C48.1966 12.2819 48.2944 12.2235 48.4016 12.1882C48.5088 12.153 48.6226 12.1419 48.7347 12.1558V13.0254C48.7313 13.2412 48.6732 13.4526 48.5658 13.6406H49.4386C49.3321 13.4523 49.2741 13.241 49.2697 13.0254V12.1558C49.3818 12.1419 49.4957 12.153 49.6028 12.1882C49.71 12.2235 49.8079 12.2819 49.8891 12.3594V11.7534H48.1013H48.1153Z" fill="#222220"/>
<path d="M47.7352 8.16874C47.8729 8.2857 48.0323 8.37527 48.2045 8.4325L48.3171 8.4834V7.91423L47.2801 7.48389C47.3053 7.62469 47.3601 7.75874 47.4409 7.87746C47.5217 7.99619 47.6267 8.09697 47.7493 8.17336" fill="#222220"/>
<path d="M50.2082 8.16888C50.3309 8.09274 50.4361 7.99207 50.517 7.87336C50.5978 7.75466 50.6525 7.62056 50.6774 7.47974L49.6404 7.90987V8.47876L49.7483 8.42788C49.9208 8.37134 50.0803 8.28175 50.2176 8.16425" fill="#222220"/>
<path d="M52.0805 5.8515C52.0805 4.98654 50.607 4.20947 48.9788 4.20947C47.3505 4.20947 45.877 4.98654 45.877 5.8515L45.9099 6.06427L46.5621 9.76461L45.9099 10.1393L44.2065 11.1014C44.2065 11.1014 43.8264 11.2956 43.6481 11.4113C43.0052 11.8738 42.8691 12.4936 43.2398 12.7573C43.2847 12.4521 43.4421 12.174 43.6818 11.976C43.9216 11.7781 44.227 11.6741 44.5397 11.6842C44.806 11.6912 45.0668 11.7603 45.3008 11.8857C45.5349 12.0111 45.7355 12.1893 45.8864 12.4057C45.9783 12.5175 46.0629 12.635 46.1398 12.7573C46.2383 12.9145 46.3369 13.0533 46.4307 13.1874H42.0902C42.4557 13.8088 42.6694 14.5056 42.7143 15.2226V24.7047C42.7143 27.0174 44.5068 28.0998 46.4683 28.0998C47.9652 28.0998 48.167 28.0304 48.9975 28.8445C49.8187 28.0304 50.0205 28.0998 51.5221 28.0998C53.4601 28.0998 55.2526 27.0036 55.2526 24.7047V15.2134C55.2975 14.4964 55.5112 13.7996 55.8767 13.1782H51.5033C51.6019 13.044 51.7004 12.9053 51.7942 12.748C51.8722 12.6264 51.9568 12.5091 52.0476 12.3965C52.1988 12.1803 52.3995 12.0023 52.6335 11.877C52.8675 11.7516 53.1282 11.6824 53.3944 11.6749C53.7067 11.6659 54.0116 11.7702 54.2512 11.968C54.4907 12.1658 54.6484 12.4433 54.6942 12.748C55.0696 12.4844 54.9335 11.8229 54.286 11.402C54.1123 11.2817 53.7322 11.0921 53.7322 11.0921L52.0429 10.1208L51.3907 9.74611L52.0429 6.04577L52.0805 5.8515ZM46.5058 6.27704L48.7911 7.04023V10.5787L47.0924 9.71373L46.5058 6.27704ZM46.9751 13.7934C47.282 14.1093 47.6551 14.3555 48.0684 14.5149C47.9806 14.8211 48.0021 15.1477 48.1294 15.44C48.2824 15.749 48.5493 15.9889 48.8755 16.1107C48.906 16.3703 49.0103 16.6161 49.1764 16.8199C49.3424 17.0236 49.5634 17.177 49.814 17.2624L49.143 17.9146L46.5246 17.873C46.4376 17.8321 46.3656 17.7659 46.3181 17.6833V17.651L46.7451 17.7203H46.7733C46.8136 17.7209 46.8528 17.7072 46.8838 17.6818C46.9148 17.6563 46.9355 17.6208 46.9422 17.5816C46.949 17.5375 46.9382 17.4925 46.9119 17.4562C46.8856 17.42 46.846 17.3952 46.8014 17.3873L46.2759 17.304L46.8577 15.3197L46.304 14.1726L45.4172 15.0977L45.3608 17.1607L44.7461 17.0589C44.7239 17.0549 44.7011 17.0554 44.6791 17.0603C44.657 17.0651 44.6362 17.0743 44.6179 17.0873C44.5995 17.1002 44.5839 17.1166 44.5721 17.1356C44.5603 17.1546 44.5524 17.1757 44.549 17.1977C44.5422 17.2417 44.5531 17.2867 44.5794 17.323C44.6057 17.3593 44.6453 17.384 44.6898 17.3919L44.9385 17.4289C44.8494 17.4798 44.7884 17.5168 44.7837 17.5261L44.7461 17.5769V17.6371C44.6887 17.8946 44.7087 18.163 44.8037 18.4095C44.8987 18.656 45.0646 18.8698 45.2811 19.0247V19.0987C45.2675 19.1863 45.2894 19.2757 45.3421 19.3475C45.3948 19.4193 45.474 19.4679 45.5626 19.4826H45.6189C45.6947 19.4822 45.7681 19.4563 45.827 19.4092C45.8859 19.3621 45.9267 19.2966 45.9427 19.2236C46.0537 19.23 46.1649 19.23 46.2759 19.2236H46.3463L49.7812 19.8342L49.8375 19.7972C50.1096 19.6075 51.1561 18.8721 51.4986 18.6084C51.5979 18.6936 51.7084 18.7651 51.8271 18.8212C51.7483 19.0593 51.7363 19.3141 51.7925 19.5584C51.8487 19.8027 51.9709 20.0274 52.1462 20.2088H43.3384V15.2134C43.3189 14.727 43.2125 14.2479 43.024 13.798L46.9751 13.7934ZM51.1983 18.3494C50.8511 18.6038 49.9548 19.2467 49.631 19.4687L46.5105 18.9137V18.8304C46.5734 18.6259 46.6112 18.4147 46.6231 18.2014L49.2462 18.243L49.2978 18.1921C49.3354 18.1551 50.1706 17.3596 50.593 16.9063C50.7037 17.0429 50.8369 17.1601 50.9871 17.2532C50.9145 17.6329 50.9935 18.0257 51.2077 18.3494H51.1983ZM45.9943 17.8221C46.0627 17.9525 46.1667 18.0615 46.2947 18.1366C46.2907 18.3243 46.2719 18.5115 46.2383 18.6963C46.2383 18.7379 46.2383 18.7796 46.2055 18.8212V18.8859C45.992 18.8866 45.7798 18.8538 45.5767 18.7888C45.3937 18.6916 45.2453 18.5416 45.1514 18.3589C45.0574 18.1762 45.0224 17.9695 45.0511 17.7666C45.2205 17.6594 45.4137 17.5943 45.6142 17.5769C45.6972 17.5752 45.7786 17.5993 45.8468 17.6458C45.9151 17.6923 45.9667 17.7589 45.9943 17.836V17.8221ZM45.6846 17.2069L45.7362 15.2226L46.2055 14.7601L46.487 15.3429L45.9286 17.2439L45.6846 17.2069ZM51.2077 27.4846H50.7384L51.1091 26.3421C51.1655 26.1849 50.8745 25.9813 50.7525 25.801C51.0399 25.97 51.3359 26.1243 51.6394 26.2635C51.6394 26.3005 51.2077 27.4754 51.2077 27.4754V27.4846ZM52.3761 26.1802L52.1321 27.4291C51.9773 27.4291 51.813 27.4615 51.6629 27.4661L51.9209 26.2681C51.996 25.912 51.0247 25.8056 50.546 25.0979C50.3921 25.2246 50.214 25.3198 50.0222 25.3778C49.8304 25.4358 49.6288 25.4554 49.4292 25.4355C49.0746 25.4309 48.7211 25.3938 48.3734 25.3245C48.3141 25.3199 48.2545 25.3199 48.1951 25.3245C48.1229 25.3194 48.0507 25.3345 47.9867 25.3681C47.9228 25.4016 47.8698 25.4523 47.8338 25.5142L47.7634 25.6298L46.4401 25.3245L46.1116 25.8611C46.0866 25.8976 46.0752 25.9416 46.0795 25.9855C46.0838 26.0294 46.1034 26.0705 46.1351 26.1016L46.2243 26.1987C46.137 26.3694 46.0229 26.5255 45.8864 26.6613L45.6893 26.4208C45.6131 26.307 45.5721 26.1739 45.5712 26.0375C45.5704 25.9012 45.6098 25.7676 45.6846 25.6529L46.2102 24.7787L47.3317 24.936L47.1581 24.5428C46.9234 24.0248 47.2801 23.368 47.3176 22.9887C47.3176 23.1043 47.1956 23.1275 47.0736 23.1275C46.9516 23.1275 46.8343 23.1275 46.7498 23.1275C46.7253 23.1205 46.6993 23.1205 46.6747 23.1275L46.3697 23.3078L46.1539 23.0951C46.1362 23.0622 46.1298 23.0246 46.1357 22.9879C46.1417 22.9512 46.1596 22.9174 46.1867 22.8916L46.7404 22.2764L46.0835 21.5224L47.022 21.985L47.3035 21.6519C47.3786 21.726 47.3458 21.9202 47.3458 21.9202C47.675 22.002 47.9663 22.1916 48.1718 22.4581C48.3773 22.7245 48.4848 23.0519 48.4767 23.3865C48.4767 23.4189 48.4767 23.4512 48.4767 23.4882V23.5206C48.5703 23.6673 48.7185 23.772 48.8896 23.812L50.1566 23.9369C50.4077 23.8606 50.6653 23.8064 50.9261 23.775C51.153 23.7761 51.3747 23.842 51.5643 23.9647C51.6531 23.9049 51.7572 23.8712 51.8646 23.8675H51.9069C52.4747 23.8675 52.714 24.3763 53.019 24.7926C53.2489 25.1118 53.5539 25.5882 53.5539 25.5882C53.511 25.6525 53.4524 25.7052 53.3836 25.7415C53.3148 25.7779 53.2378 25.7967 53.1598 25.7963C53.1052 25.8017 53.0501 25.8017 52.9955 25.7963C52.3855 25.6853 52.2963 24.4503 51.9491 24.3532H51.8928C51.8599 24.3542 51.8278 24.3637 51.7998 24.3807C51.7718 24.3978 51.7489 24.4218 51.7332 24.4503C51.8928 24.8712 51.7989 25.0424 51.9726 25.3754C52.1005 25.5753 52.2587 25.7547 52.4418 25.9073C52.4418 25.9073 52.4183 26.0877 52.3902 26.2265L52.3761 26.1802ZM45.5485 25.01L45.6049 25.1534C45.5673 25.2783 45.1356 25.4587 45.1356 25.4587L45.0418 25.2552C44.982 25.1148 44.9717 24.9588 45.0125 24.8121C45.0534 24.6653 45.143 24.5363 45.267 24.4457L45.9803 24.0202L46.7357 24.1774C46.7316 24.3253 46.7779 24.4702 46.8671 24.5891L46.0741 24.4411L45.6049 24.7649C45.5695 24.7952 45.5459 24.8367 45.5382 24.8823C45.5305 24.9278 45.5391 24.9746 45.5626 25.0146L45.5485 25.01ZM52.4981 27.3736L52.714 26.2542C52.714 26.1895 52.7374 26.1109 52.7468 26.0461C52.8102 26.073 52.8762 26.0931 52.9439 26.1062C53.0188 26.1131 53.0942 26.1131 53.1691 26.1062C53.2954 26.1057 53.4198 26.0767 53.5329 26.0213C53.646 25.966 53.7447 25.8859 53.8214 25.7871L53.9903 25.5974L53.8542 25.3893C53.8542 25.3893 53.5398 24.899 53.3099 24.5752L53.1785 24.3809C53.0666 24.1378 52.8912 23.9284 52.6702 23.774C52.4493 23.6196 52.1907 23.5258 51.9209 23.5021H51.8599C51.7654 23.5071 51.6721 23.5258 51.5831 23.5576C51.3811 23.4615 51.1598 23.411 50.9355 23.4096C50.711 23.4147 50.4889 23.457 50.2786 23.5345L50.166 23.5669L48.9271 23.4466C48.8765 23.4223 48.8329 23.3857 48.8004 23.3402L49.0679 23.2338C48.9928 22.355 48.1294 21.8138 47.6602 21.6288C47.6389 21.5338 47.59 21.447 47.5194 21.379L47.2519 21.1293L47.0173 21.4068L46.9 21.5456L45.1638 20.8425L46.29 22.2301L45.8442 22.8962C45.8212 22.9186 45.8029 22.9452 45.7905 22.9746C45.778 23.004 45.7716 23.0355 45.7716 23.0673C45.7716 23.0992 45.778 23.1307 45.7905 23.1601C45.8029 23.1894 45.8212 23.2161 45.8442 23.2385L46.3134 23.553L46.7827 23.3772H46.8296C46.8296 23.4466 46.778 23.7288 46.7545 23.8074L45.9286 23.6455L45.0605 24.108C44.87 24.2431 44.7322 24.4384 44.6699 24.6613C44.6075 24.8843 44.6245 25.1216 44.718 25.3338L44.8165 25.5419L44.9526 25.8333L45.2576 25.7084C45.2013 25.8553 45.1837 26.0139 45.2067 26.1692C45.2297 26.3246 45.2924 26.4717 45.389 26.5965L45.572 26.8232L45.816 27.1285L46.0882 26.8417C46.2659 26.6683 46.4078 26.4625 46.5058 26.2357L46.5621 26.0507L46.4307 25.9073V25.8796L46.5809 25.6391L47.6602 25.8888L47.9042 25.9443L48.0356 25.7316L48.106 25.6159C48.106 25.5928 48.106 25.5882 48.1716 25.5882H48.289C48.6568 25.6605 49.0307 25.6992 49.4058 25.7038C49.6578 25.7175 49.9102 25.6877 50.1519 25.6159L50.7431 26.3653L50.3771 27.4476V27.5124C50.1138 27.5074 49.8524 27.5572 49.6098 27.6584C49.3673 27.7596 49.1491 27.91 48.9694 28.0998C48.3922 27.5355 47.9886 27.48 46.4401 27.48C44.5913 27.48 43.3384 26.4115 43.3384 24.7047V20.5418H54.6004V24.7047C54.6262 25.3249 54.4268 25.9339 54.0381 26.4222C53.6493 26.9105 53.0966 27.2462 52.4793 27.369L52.4981 27.3736ZM54.9147 13.798C54.725 14.2475 54.6185 14.7268 54.6004 15.2134V18.3263C54.4007 18.2845 54.2203 18.1797 54.0866 18.0278C53.9528 17.8759 53.8729 17.6851 53.8589 17.4844V17.3411H53.7182C53.4755 17.3204 53.2487 17.2136 53.08 17.0404C52.8612 16.8082 52.7346 16.506 52.7234 16.1893C52.6249 16.3478 52.5772 16.5319 52.5864 16.7175C52.5956 16.9032 52.6613 17.0818 52.775 17.23C52.9572 17.4593 53.2234 17.6088 53.5164 17.6463C53.5581 17.9104 53.6868 18.1537 53.8827 18.3384C54.0786 18.5232 54.3308 18.6392 54.6004 18.6685V20.1949H52.653C52.4046 20.0713 52.214 19.8584 52.1205 19.6001C52.027 19.3418 52.0379 19.0579 52.1509 18.8073L52.226 18.6408L52.0523 18.576C51.7816 18.4822 51.5584 18.2885 51.4298 18.0357C51.3011 17.7829 51.277 17.4908 51.3625 17.2208L51.4001 17.082L51.2687 17.0219C51.028 16.8834 50.8344 16.6777 50.7124 16.4306C50.5904 16.1836 50.5456 15.9064 50.5836 15.6343C50.4524 15.7612 50.3657 15.9261 50.3361 16.105C50.3066 16.2838 50.3357 16.4673 50.4193 16.6287C50.3255 16.7305 50.2035 16.86 50.0674 16.9941C49.8328 16.9437 49.6217 16.8185 49.4665 16.6379C49.3113 16.4573 49.2207 16.2314 49.2087 15.9951V15.8655L49.1008 15.8239C48.9602 15.7827 48.8296 15.7139 48.7167 15.6217C48.6039 15.5295 48.511 15.4158 48.4438 15.2874C48.353 15.0735 48.3365 14.8361 48.3969 14.6121C48.4896 14.6325 48.5837 14.6464 48.6784 14.6537C48.7738 14.6585 48.8693 14.6585 48.9647 14.6537C49.3403 14.6528 49.7115 14.5742 50.0543 14.4228C50.397 14.2714 50.7037 14.0506 50.9543 13.7748L54.9147 13.798ZM51.8787 10.6388L52.6483 11.1014L52.8407 11.2124C52.4414 11.3194 52.0795 11.5322 51.7942 11.8275L51.7614 11.8553C51.6957 11.9247 51.6347 11.9941 51.5737 12.0681L51.5362 12.1143C51.4767 12.1883 51.4204 12.2654 51.3672 12.3456L51.3391 12.3872C51.2734 12.4797 51.2124 12.5815 51.1514 12.6832C50.9425 13.0903 50.6332 13.4391 50.252 13.6978C49.8707 13.9564 49.4297 14.1165 48.9694 14.1634C48.5056 14.1178 48.0611 13.9573 47.6771 13.6969C47.2932 13.4365 46.9823 13.0846 46.7733 12.674C46.7123 12.5722 46.6513 12.4751 46.5903 12.3826L46.5527 12.3317L46.3885 12.1097L46.3463 12.0588C46.2853 11.9848 46.2243 11.9154 46.1633 11.8507L46.1539 11.809C45.868 11.5154 45.5062 11.3043 45.1074 11.1985L45.3045 11.0875L46.0741 10.6249L46.8624 10.1624L48.9694 11.3326L51.081 10.1994L51.8787 10.6388ZM50.8464 9.71373L49.1618 10.5879V7.04486L51.447 6.28166L50.8464 9.71373ZM48.9694 6.66095L46.4683 5.68498C46.6794 5.19006 47.6649 4.7599 48.9694 4.7599C50.2739 4.7599 51.2593 5.18544 51.4752 5.68498L48.9694 6.66095Z" fill="#222220"/>
</svg>
