<svg width="72" height="72" viewBox="0 0 72 72" fill="none" xmlns="http://www.w3.org/2000/svg">
<path fill-rule="evenodd" clip-rule="evenodd" d="M40.9426 14.6944C38.9336 15.616 36.6914 15.6862 34.629 14.8919C32.5665 14.0975 30.9506 12.5413 30.0792 10.5102L26.1523 1.35825C29.316 0.463997 32.6222 0 36.0001 0C45.616 0 54.6564 3.74474 61.4561 10.5441C63.9895 13.0777 66.0983 15.9227 67.7479 18.9923L65.8941 19.4967C62.8745 20.3183 59.6102 19.3123 57.5775 16.9337C54.0095 12.7582 48.0309 11.4423 43.0393 13.7324L40.9426 14.6944ZM41.8701 33.121C44.8426 33.1623 47.6718 34.3074 49.8365 36.345L67.6761 53.1381C66.0369 56.1577 63.9534 58.9584 61.4558 61.456C54.6563 68.2554 45.616 72.0001 36 72.0001C34.7785 72.0001 33.5665 71.939 32.367 71.8196L34.2101 65.2772C35.4665 60.8167 34.7379 56.0308 32.2108 52.1465L31.76 51.4536C30.2131 49.0757 29.569 46.2181 29.9461 43.4064C30.3232 40.5947 31.698 38.0077 33.8169 36.1216C36.0377 34.1451 38.8976 33.0754 41.8701 33.121ZM28.1732 71.1506L30.15 64.1334C31.0769 60.843 30.5393 57.3122 28.675 54.4467L28.2243 53.7538C26.1273 50.5306 25.254 46.6565 25.7654 42.8454C26.2766 39.0344 28.1402 35.5274 31.0125 32.9708C34.0227 30.2914 37.9039 28.8478 41.9289 28.9031C45.9584 28.9592 49.7934 30.5113 52.7277 33.2735L69.5483 49.1072C71.1574 44.9854 72 40.5576 72 35.9999C72 31.4358 71.155 27.0021 69.5415 22.8755L67.0016 23.5667C65.9406 23.8555 64.8589 23.9956 63.7857 23.9957C60.2209 23.9958 56.7436 22.4507 54.3706 19.6739C52.0214 16.9249 48.0853 16.058 44.7982 17.5662L42.7015 18.5283C39.6505 19.9281 36.2451 20.0346 33.1127 18.8282C29.9803 17.6216 27.5262 15.2582 26.2025 12.1733L22.158 2.74701C19.0365 4.04648 16.1013 5.79308 13.4294 7.95151C20.4408 18.6028 20.4801 32.5549 13.3569 43.2775L5.48615 55.1255C6.91287 57.3921 8.60336 59.5157 10.5439 61.4559C15.4591 66.3709 21.5454 69.6885 28.1732 71.1506ZM10.2646 10.8306C15.9927 20.0035 15.9046 31.8198 9.84377 40.9434L3.21789 50.9175C1.11134 46.294 0 41.2328 0 36C0 26.5177 3.6435 17.5966 10.2646 10.8306Z" fill="#17AADF"/>
</svg>
