<svg width="96" height="34" viewBox="0 0 96 34" fill="none" xmlns="http://www.w3.org/2000/svg">
<path fill-rule="evenodd" clip-rule="evenodd" d="M7.07981 0L5.46657 4.35584H27.8225L29.4358 0H7.07981ZM4.65944 6.53278L3.0462 10.8876H25.4022L27.0154 6.53278H4.65944ZM2.2441 13.0656L0.630859 17.4204H22.9868L24.5991 13.0656H2.2441Z" fill="#009FDF"/>
<mask id="mask0" mask-type="alpha" maskUnits="userSpaceOnUse" x="34" y="6" width="62" height="28">
<path d="M34.1719 33.2991H95.3688V6.61646H34.1719V33.2991Z" fill="white"/>
</mask>
<g mask="url(#mask0)">
<path fill-rule="evenodd" clip-rule="evenodd" d="M48.1582 19.0804V19.1723C49.1799 19.5419 50.1558 20.1883 50.6672 20.6034C52.247 21.8961 52.9444 23.604 52.9444 25.8198C52.9444 29.4678 50.9925 32.0987 47.7862 32.9299C46.8102 33.2066 45.7886 33.2996 43.8824 33.2996H34.1719V6.61646H42.7683C44.5341 6.61646 45.7418 6.70836 46.8102 6.98509C49.9241 7.81629 51.9684 9.94023 51.9684 13.3095C51.9684 15.1102 51.3178 16.6342 50.2494 17.6492C49.7848 18.1108 49.1342 18.6653 48.1582 19.0804ZM39.5619 21.8961V28.9133H43.2796C44.3938 28.9133 45.4165 28.8214 46.1606 28.1286C46.9038 27.4357 47.2291 26.5591 47.2291 25.4047C47.2291 24.5281 46.9963 23.6969 46.5317 23.097C45.7418 22.1274 44.7659 21.8961 43.0936 21.8961H39.5619ZM39.5152 17.2796H42.5355C43.4646 17.2796 43.9292 17.2796 44.3938 17.1412C45.6493 16.7716 46.4392 15.6647 46.4392 14.1406C46.4392 12.3409 45.6025 11.5552 44.3938 11.1865C43.8824 11.0482 43.3721 11.0017 42.3494 11.0017H39.5152V17.2796ZM61.0293 33.2996V11.0936H53.2697V6.61646H74.8306L73.2976 11.0936H66.4193V33.2996H61.0293ZM76.5029 33.2996V6.61646H93.9751L92.4421 11.0936H81.8471V17.0029H86.1687C89.6535 17.0029 91.4661 17.8341 92.7206 18.8955C93.6965 19.7267 95.3688 21.5729 95.3688 25.2209C95.3688 28.8214 93.6498 30.806 92.2093 31.822C90.537 32.9754 88.7711 33.2996 85.1927 33.2996H76.5029ZM81.8471 28.8214H85.8901C87.4231 28.8214 88.3523 28.4518 89.0029 27.6206C89.3282 27.2055 89.7928 26.4662 89.7928 25.0815C89.7928 23.6969 89.3282 22.7273 88.3991 22.0345C87.842 21.6194 87.0978 21.3891 85.8434 21.3891H81.8471V28.8214Z" fill="#0A2973"/>
</g>
</svg>
