<svg width="54" height="50" viewBox="0 0 54 50" fill="#17AADF" xmlns="http://www.w3.org/2000/svg">
<path fill-rule="evenodd" clip-rule="evenodd" d="M43.4841 12.9619C43.6542 13.0205 43.8293 13.0488 44.0027 13.0488C44.4469 13.0488 44.8803 12.8622 45.186 12.5196C46.8994 10.5979 47.3571 7.93149 46.4108 5.38779C45.5081 2.96266 43.4256 0.981041 40.8391 0.0870548C40.2339 -0.121774 39.5623 0.0525918 39.1372 0.52974C37.4241 2.45146 36.966 5.11742 37.9128 7.66112C38.815 10.0862 40.8976 12.0679 43.4841 12.9619ZM33.3224 23.1934H40.9379C40.2705 17.299 35.9051 12.5038 30.2135 11.1704C30.7977 11.9368 31.3642 13.0006 31.8672 14.4628C32.6937 16.8645 33.1992 19.9198 33.3224 23.1934ZM25.1259 15.4842C25.9754 13.0153 26.8331 12.4807 27 12.4807C27.1669 12.4807 28.0246 13.0153 28.8741 15.4842C29.5939 17.5761 30.038 20.2707 30.1558 23.1934H23.8442C23.962 20.2707 24.4061 17.5765 25.1259 15.4842ZM27 37.0576C26.8331 37.0576 25.9754 36.523 25.1259 34.0537C24.4061 31.9618 23.962 29.2672 23.8442 26.3445H30.1558C30.038 29.2672 29.5939 31.9618 28.8741 34.0537C28.0246 36.523 27.1669 37.0576 27 37.0576ZM33.3224 26.3445H40.9379C40.2705 32.2389 35.9051 37.0341 30.2135 38.3679C30.7977 37.6011 31.3642 36.5373 31.8672 35.0755C32.6937 32.6733 33.1992 29.6185 33.3224 26.3445ZM20.6776 26.3445H13.062C13.7295 32.2389 18.0949 37.0341 23.7865 38.3679C23.2023 37.6011 22.6358 36.5373 22.1328 35.0755C21.3063 32.6733 20.8008 29.6185 20.6776 26.3445ZM20.6776 23.1934H13.062C13.7295 17.299 18.0949 12.5038 23.7865 11.1704C23.2023 11.9368 22.6358 13.0006 22.1328 14.4628C21.3063 16.8645 20.8008 19.9198 20.6776 23.1934ZM46.0309 25.3646C44.24 23.3026 43.4313 20.5494 43.8676 18C44.3249 15.3263 46.0598 13.2455 48.5086 12.434C49.1163 12.2325 49.7858 12.4159 50.2044 12.8984C51.9957 14.9604 52.8044 17.7132 52.3681 20.263C51.9108 22.9371 50.1759 25.0175 47.7271 25.829C47.5631 25.8832 47.3946 25.9094 47.2282 25.9094C46.7766 25.9094 46.337 25.717 46.0309 25.3646ZM53.8311 28.4632C53.7104 27.8371 53.2226 27.3447 52.5956 27.2167C50.0676 26.7002 47.5203 27.6381 45.7813 29.7264C44.1239 31.7171 43.4416 34.5042 43.9574 37.1817C44.0781 37.8082 44.5659 38.3001 45.1934 38.4285C45.6507 38.5221 46.1088 38.5676 46.5628 38.5676C48.6166 38.5676 50.5834 37.6289 52.0072 35.9188C53.6651 33.9277 54.3469 31.1407 53.8311 28.4632ZM40.8028 40.5949C43.3567 39.6521 46.0338 40.1084 47.9636 41.8143C48.4427 42.2377 48.6178 42.9069 48.4081 43.5091C47.5104 46.0849 45.5205 48.1588 43.0852 49.0577C42.2085 49.381 41.317 49.5398 40.4464 49.5398C38.7808 49.5398 37.1913 48.9588 35.924 47.8384C35.4449 47.415 35.2698 46.7458 35.4795 46.1435C36.3772 43.5678 38.3671 41.4935 40.8028 40.5949ZM9.99727 13.0488C10.1707 13.0488 10.3458 13.0205 10.516 12.9618C13.102 12.0679 15.185 10.0862 16.0872 7.66068C17.034 5.11738 16.5759 2.4514 14.8628 0.529673C14.4381 0.0529327 13.7661 -0.121845 13.1609 0.0869855C10.5745 0.980976 8.49188 2.96261 7.58922 5.38816C6.64289 7.93187 7.1006 10.5978 8.81405 12.5196C9.11974 12.8622 9.55315 13.0488 9.99727 13.0488ZM6.77183 25.9097C6.60497 25.9097 6.43688 25.883 6.27291 25.8288C3.82405 25.0178 2.08917 22.937 1.63187 20.2629C1.19557 17.7136 2.00471 14.9604 3.79563 12.8984C4.21462 12.416 4.88369 12.233 5.49178 12.434C7.94022 13.2455 9.67511 15.3263 10.1324 18.0004C10.5687 20.5497 9.75998 23.3025 7.96906 25.3648C7.66296 25.7168 7.22337 25.9097 6.77183 25.9097ZM8.80703 38.4281C9.43407 38.3001 9.92187 37.8082 10.0426 37.1817C10.5584 34.5042 9.87613 31.7172 8.21871 29.7261C6.47971 27.6382 3.93199 26.6999 1.40444 27.2169C0.7774 27.3449 0.289607 27.8368 0.168895 28.4633C-0.346913 31.1408 0.334926 33.9278 1.99276 35.9185C3.417 37.6289 5.38342 38.5676 7.43717 38.5676C7.89118 38.5676 8.34931 38.5221 8.80703 38.4281ZM6.03641 41.8144C7.96617 40.108 10.6433 39.6522 13.1976 40.595C15.6329 41.4935 17.6228 43.5675 18.5205 46.1436C18.7302 46.7458 18.5551 47.415 18.076 47.838C16.8087 48.9584 15.2188 49.5398 13.5536 49.5398C12.683 49.5398 11.7915 49.381 10.9148 49.0573C8.4795 48.1588 6.4896 46.0849 5.59187 43.5092C5.38217 42.9065 5.55727 42.2378 6.03641 41.8144Z" fill="#17AADF"/>
</svg>
